<?xml version="1.0" standalone="no"?>
<!DOCTYPE svg PUBLIC "-//W3C//DTD SVG 20010904//EN"
 "http://www.w3.org/TR/2001/REC-SVG-20010904/DTD/svg10.dtd">
<svg version="1.0" xmlns="http://www.w3.org/2000/svg"
 width="278.000000pt" height="278.000000pt" viewBox="0 0 278.000000 278.000000"
 preserveAspectRatio="xMidYMid meet">
<metadata>
Created by potrace 1.11, written by Peter Selinger 2001-2013
</metadata>
<g transform="translate(0.000000,278.000000) scale(0.100000,-0.100000)"
fill="#000000" stroke="none">
<path d="M2488 2387 l-3 -170 -120 -47 c-66 -26 -255 -100 -420 -165 -165 -64
-313 -123 -330 -130 -16 -7 -124 -50 -238 -95 -177 -69 -211 -79 -224 -68 -9
7 -71 69 -139 137 -118 118 -123 123 -144 108 -12 -8 -29 -25 -37 -36 -14 -21
-10 -27 96 -132 61 -61 109 -114 107 -117 -2 -4 -36 -83 -76 -177 -40 -93 -81
-188 -91 -209 -11 -22 -19 -43 -19 -47 0 -4 -13 -36 -29 -71 -16 -35 -106
-244 -201 -465 l-172 -402 -106 -3 -106 -3 -1 -47 -1 -48 1178 0 1178 0 0
1178 0 1178 -50 0 -50 0 -2 -169z m2 -447 l0 -169 -71 -21 c-40 -12 -79 -23
-88 -25 -9 -2 -126 -36 -261 -75 -135 -39 -254 -73 -265 -75 -11 -3 -49 -13
-85 -24 -36 -11 -114 -34 -175 -51 -60 -17 -117 -33 -126 -36 -19 -5 -174 145
-162 157 4 4 62 28 128 54 66 26 134 53 150 60 17 7 165 65 330 129 165 65
309 121 320 126 18 9 296 118 303 120 1 0 2 -76 2 -170z m0 -470 c0 -104 -3
-190 -7 -191 -39 -3 -91 -10 -183 -24 -35 -5 -104 -15 -137 -19 -27 -4 -91
-13 -143 -21 -14 -2 -61 -9 -105 -15 -44 -6 -91 -13 -105 -15 -14 -2 -45 -7
-70 -10 l-46 -6 -102 102 c-57 56 -101 104 -98 107 5 4 631 186 681 197 11 3
79 22 150 44 72 22 138 40 148 40 16 1 17 -14 17 -189z m-1247 5 l125 -126
-55 -112 c-53 -106 -119 -244 -238 -492 -29 -60 -89 -185 -133 -277 l-81 -168
-151 0 c-83 0 -150 4 -148 9 12 30 553 1291 554 1291 1 0 58 -56 127 -125z
m349 -349 c54 -55 98 -103 98 -108 0 -9 -28 -71 -115 -253 -145 -304 -185
-388 -201 -425 l-18 -40 -191 0 -191 0 54 113 c30 61 76 157 102 212 26 55 82
172 125 260 43 88 102 211 132 274 l54 113 26 -23 c14 -13 70 -69 125 -123z
m898 -41 l0 -95 -27 -1 c-16 0 -37 -2 -48 -4 -11 -2 -60 -8 -110 -15 -49 -6
-101 -13 -115 -15 -14 -2 -45 -6 -70 -10 -55 -7 -116 -15 -151 -21 -22 -3 -39
9 -102 73 -42 42 -75 79 -73 81 2 2 17 5 33 7 27 4 221 32 273 40 14 2 48 7
75 10 28 3 102 14 165 24 63 10 123 19 133 20 15 1 17 -10 17 -94z m-571 -286
l141 -142 -17 -27 c-10 -14 -65 -95 -123 -178 l-105 -151 -172 -1 c-95 0 -173
2 -173 4 0 2 32 71 71 153 39 81 103 216 141 298 78 166 87 185 92 185 2 0 67
-64 145 -141z m571 -24 l0 -114 -72 -21 c-40 -12 -86 -25 -102 -31 -16 -5 -34
-9 -41 -9 -6 0 -62 50 -124 112 -78 77 -108 114 -99 118 11 7 61 14 248 37 25
3 65 9 90 13 25 4 57 8 73 9 l27 1 0 -115z m-193 -355 l115 -115 -116 -3 c-63
-1 -169 -1 -236 0 l-120 3 96 138 96 138 26 -23 c13 -13 76 -75 139 -138z
m193 44 c0 -99 5 -99 -87 -4 l-53 55 57 17 c87 25 83 29 83 -68z"/>
</g>
</svg>
