<?xml version="1.0" encoding="utf-8"?>
<!-- Generator: Adobe Illustrator 22.1.0, SVG Export Plug-In . SVG Version: 6.00 Build 0)  -->
<svg version="1.1" id="Layer_1" xmlns="http://www.w3.org/2000/svg" xmlns:xlink="http://www.w3.org/1999/xlink" x="0px" y="0px"
	 viewBox="0 0 1181.5 859.9" style="enable-background:new 0 0 1181.5 859.9;" xml:space="preserve">
<style type="text/css">
	.st0{fill:#231F20;}
</style>
<g>
	<g>
		<path class="st0" d="M109.2,566.8c0-12.2-4-21.8-11.9-28.8c-7.9-6.9-19.2-10.3-33.6-10.3H33.8v78.9h29c15.5,0,27.2-3.6,34.9-10.7
			C105.3,588.7,109.2,578.9,109.2,566.8z M55.8,546.6h7.5c8.2,0,14.4,1.8,18.2,5.3c3.8,3.5,5.7,8.7,5.7,15.3
			c0,6.6-1.9,11.7-5.7,15.1c-3.8,3.4-9.5,5.2-16.9,5.2h-8.8V546.6z"/>
		<path class="st0" d="M243.1,595.7c8.3-7.8,12.6-17.5,12.6-29c0-11.5-4.2-21.3-12.6-29c-8.3-7.7-18.6-11.6-30.8-11.6
			c-12.1,0-22.5,3.9-30.8,11.6c-8.3,7.8-12.6,17.5-12.6,29c0,11.5,4.2,21.3,12.6,29c8.3,7.7,18.6,11.6,30.8,11.6
			C224.5,607.3,234.8,603.4,243.1,595.7z M227.3,582.2c-4.1,4.2-8.9,6.3-14.8,6.3c-5.9,0-10.8-2.1-14.8-6.3
			c-4.1-4.2-6.1-9.4-6.1-15.5c0-6.1,2-11.2,6.1-15.5c4.1-4.3,9-6.3,14.8-6.3c5.9,0,10.8,2.1,14.8,6.3c4.1,4.3,6.1,9.4,6.1,15.5
			C233.4,572.9,231.4,577.9,227.3,582.2z"/>
		<polygon class="st0" points="389.4,565.8 377.3,528.1 377.2,527.7 355.6,527.7 343.3,565.8 329.7,528.1 329.5,527.7 305.8,527.7 
			334.6,606.2 334.7,606.6 351,606.6 366.3,559.8 381.8,606.6 398,606.6 426.9,527.7 403.2,527.7 		"/>
		<path class="st0" d="M825.4,595.7c8.3-7.8,12.6-17.5,12.6-29c0-11.5-4.2-21.3-12.6-29c-8.3-7.7-18.6-11.6-30.8-11.6
			c-12.1,0-22.5,3.9-30.8,11.6c-8.3,7.8-12.6,17.5-12.6,29c0,11.5,4.2,21.3,12.6,29c8.3,7.7,18.7,11.6,30.8,11.6
			C806.7,607.3,817.1,603.4,825.4,595.7z M809.5,582.2c-4.1,4.2-8.9,6.3-14.8,6.3c-6,0-10.8-2.1-14.9-6.3c-4.1-4.2-6.1-9.3-6.1-15.5
			c0-6.1,2-11.2,6.1-15.5c4-4.2,9-6.3,14.9-6.3c5.9,0,10.8,2.1,14.8,6.3c4.1,4.3,6.1,9.4,6.1,15.5
			C815.6,572.9,813.6,577.9,809.5,582.2z"/>
		<polygon class="st0" points="935.3,606.6 950.7,559.8 966.2,606.6 982.4,606.6 1011.3,527.7 987.6,527.7 973.8,565.8 961.6,528.1 
			961.5,527.7 940,527.7 927.6,565.8 914.1,528.1 913.9,527.7 890.2,527.7 919,606.2 919.1,606.6 		"/>
		<polygon class="st0" points="1125.7,571.5 1090.9,527.9 1090.7,527.7 1071,527.7 1071,606.6 1093,606.6 1093,564.1 1126.7,606.4 
			1126.9,606.6 1147.8,606.6 1147.8,527.7 1125.7,527.7 		"/>
		<polygon class="st0" points="543.5,571.5 508.7,527.9 508.5,527.7 488.8,527.7 488.8,606.6 510.8,606.6 510.8,564.1 544.5,606.4 
			544.7,606.6 565.5,606.6 565.5,527.7 543.5,527.7 		"/>
		<polygon class="st0" points="675.1,606.6 675.1,546.5 697.2,546.5 697.2,527.7 630.9,527.7 630.9,546.5 653.1,546.5 653.1,606.6 
					"/>
		<path class="st0" d="M394.6,681.3c0-2.2-1.9-4-4.2-4H83.3c-2.3,0-4.2,1.8-4.2,4c0,2.2,1.9,4,4.2,4h307.1
			C392.7,685.4,394.6,683.6,394.6,681.3z"/>
		<path class="st0" d="M1099.7,677.3H607.6c-2.3,0-4.2,1.8-4.2,4c0,2.2,1.9,4,4.2,4h492.1c2.3,0,4.2-1.8,4.2-4
			C1103.9,679.1,1102.1,677.3,1099.7,677.3z"/>
		<path class="st0" d="M553.8,785.3c-0.5,8.6,2.3,15.5,8.3,20.4c4.6,3.8,10.8,5.7,18.3,5.7c2.3,0,4.7-0.2,7.2-0.5
			c10.8-1.5,20.5-6.5,28.6-14.8c8.1-8.3,12.6-18.7,13.4-30.8c0.5-8.1-2.3-14.6-8.2-19.4c-5.9-4.8-13.7-6.6-23.1-5.3
			c-12.1,1.6-22.5,6.5-30.8,14.6C559.2,763.3,554.6,773.4,553.8,785.3z M576.4,782c0.8-7.5,2.9-14.1,6.4-19.5
			c3.5-5.4,7.4-8.3,12-8.9c0.7-0.1,1.3-0.1,1.9-0.1c3.5,0,6,1.4,7.7,4.3c2,3.3,2.8,8.1,2.4,14.2c-0.4,6.2-2.4,12-5.9,17.2
			c-3.5,5.2-7.5,8.2-12.1,8.8c-4.6,0.6-7.8-0.5-9.8-3.6C577,791.4,576.1,787.2,576.4,782z"/>
		<path class="st0" d="M538.4,768l0.9-0.1c0.2,0,0.3,0,0.6-0.1c4.2-0.6,7.8-2.1,10.6-4.5c2.8-2.5,4.3-5.4,4.6-8.8
			c0.2-3.4-1-6-3.6-7.7c-2.5-1.7-6.1-2.2-10.8-1.6c-5.8,0.8-10.9,3.3-15.1,7.6c-0.1-1.1-0.5-2.1-1.2-2.8c-1.5-1.6-4.2-2.1-8.3-1.6
			c-3.9,0.5-7.5,1.5-11.2,3.1l-0.3,0.1l-8.6,47.2c-0.1,0.8-4.1,19.3-4.1,19.5l-0.1,0.7l0.7,0.1c0,0,0.9,0.1,2.4,0.1
			c5.1,0,17.4-1.4,21.1-14.7c4-19.3,5.1-24.7,5.4-26.2l0.1-0.5c1-4.1,2-7.5,3.2-10.1l0-0.1c0-0.1,0.1-0.1,0.1-0.2
			c1.7-3.7,3-4.4,3-4.4l0.2-0.1c1.9-1.9,4-3.1,6.3-3.4c1.9-0.3,3.3,0,4.1,0.9c0.7,0.8,1,2.1,0.9,3.8c-0.1,0.9-0.2,1.8-0.5,2.9
			L538.4,768z"/>
		<path class="st0" d="M426.2,812.3l0.3,0c3,0,4.8,1.1,5.9,1.8c0.2,0.2,0.5,0.3,0.7,0.4l0.5,0.3l0.3-0.5c1.6-2.6,2.7-7.3,1.4-11.2
			c-1-2.9-3.1-5-6.3-6.3c-2.9-1.2-5.9-1.8-8.7-1.8c-8.2,0-15.5,5.2-19,13.6c-3.8,8.9-2.3,18.6,3.8,24.8c5.7,5.9,12.7,8.8,20.9,8.8
			c9.1,0,17.9-3.9,22.5-7.2c11-7.8,15.2-26.3,15.3-27.1l15.8-73.9c5.6-0.8,15.6-2.4,17.7-2.7c7.5-1.2,25.7-5.8,41.5-14.4
			c18.9-10.4,28.1-23.2,26.5-37.2c-0.8-6.7-5.9-13.3-14-18.2c-10.3-6.2-25.2-9.5-43-9.5c-9.9,0-20.9,1-32.6,3
			c-43.3,7.3-63.7,30.4-64.8,50c-0.4,7.5,2.6,13.2,8.9,17c1.8,1,4.7,2.3,8.5,2.3c4.5,0,11.4-1.9,18.2-10.8l0.8-1.1l-2.2,0
			c-5.3,0-9.2-1-11.9-2.9c-2.4-1.8-2.5-4.5-2.3-8.5c0.8-20.7,43.7-32.1,73-32.1c9,0,16.7,1,22.2,2.9c11,3.9,16.1,9.8,14.6,17.1
			c-2.6,13-22.1,22.8-57.9,29.2l8.2-38.6l-0.8,0c-20.5-1.2-23.9,12.6-25.5,19.1l-21.3,100.6c-0.1,0.4-0.2,0.8-0.3,1.4
			c-1.3,5.7-4.8,20.8-12,25.3c-1.4,1-3.9,1.7-6.2,1.5c-2.2-0.1-4.3-1.1-5.7-2.8c-1.3-1.5-2-3.4-1.9-5.4
			C417.8,815.4,421.4,812.4,426.2,812.3z"/>
		<path class="st0" d="M529.1,837.5l-0.8-0.6l-0.2,0.9c-0.1,0.4-2.2,9.4,12.1,15.6c9.6,4.2,22,6.4,36.9,6.4c18,0,39-3,64.2-9.2
			c25-6.2,51.3-11.9,73.2-11.9c17.4,0,30.8,3.5,40.8,10.8l0.1,0.1l0.2,0c0,0,0.6,0,1.5,0c4.2,0,14-0.9,14.6-8.9
			c0.6-8.4-13.3-15.5-34.7-17.5c-8.1-0.8-14.4-1.1-20.6-1.1c-16.2,0-32.5,2.4-60.1,8.9c-3.5,0.8-7.4,1.8-11.6,2.8
			c-22.1,5.4-52.3,12.9-77.9,12.9C550.4,846.9,537.7,843.7,529.1,837.5z"/>
		<path class="st0" d="M665.9,743.8c0.4-1.8,0.5-2.8,0.6-3c0.1-1.9-0.3-3.4-1.3-4.5c-1.6-1.7-4.6-2.3-8.9-1.7
			c-3.7,0.5-7.2,1.5-10.6,3.1l-0.3,0.1l-7.7,40.8c-0.2,1.2-0.3,2.4-0.4,3.7c-0.4,6.1,1.2,11.3,4.8,15.5c2.9,3.4,7.2,5.1,12.7,5.1
			c1.4,0,2.8-0.1,4.4-0.3c7.6-1,14.7-4.4,20.9-10.1c6.2-5.7,11.2-12.5,14.9-20.5c3.7-8,5.8-16.2,6.5-24.6l0.1-1.8l19.2-5.3
			c-6.6,7.5-10.2,16.5-10.9,26.8c-0.5,8.5,2.3,15.3,8.3,20.2c4.6,3.7,10.8,5.6,18.2,5.6c2.3,0,4.7-0.2,7.2-0.5
			c10.8-1.5,20.4-6.4,28.5-14.7c8.1-8.3,12.6-18.5,13.4-30.5c0.5-8-2.3-14.5-8.2-19.2c-6-4.7-13.8-6.5-23.1-5.2
			c-0.6,0.1-1.3,0.2-1.9,0.3l0.3-0.3l-2.4,0.6c0,0-1.1,0.3-2.8,0.7l-0.7,0.2c-0.8,0.2-1.7,0.4-2.4,0.6c-2.7,0.7-26.6,7-43.6,11.2
			c-1.8-6.6-6.5-9.5-14-8.5c-3.3,0.4-6.3,1.8-8.8,4.1c-2.1,2.1-3.3,4.7-3.5,7.7c-0.2,3.1,1,5.6,3.6,7.5c2.2,1.6,5.5,2.1,9.9,1.5
			l0.5-0.1c-1.1,10.7-4.7,20.9-10.6,30.2c-3.4,5.2-7.4,8.1-11.9,8.7c-2.8,0.4-4.7-0.1-5.8-1.2c-0.9-1-1.4-2.7-1.2-4.9
			c0.1-1.9,1.4-8.9,3.8-21.5C664.3,752.1,665.3,746.8,665.9,743.8z M732.4,763.8c0.8-7.4,2.9-13.9,6.4-19.3c3.4-5.2,7.4-8.2,12-8.8
			c0.7-0.1,1.3-0.1,2-0.1c3.5,0,6,1.4,7.7,4.2c2,3.3,2.8,8,2.4,14.1c-0.4,6.1-2.4,11.8-5.9,17c-3.5,5.2-7.5,8.1-12.2,8.7
			c-4.6,0.7-7.8-0.5-9.8-3.5C732.9,773.1,732.1,768.9,732.4,763.8z"/>
		<path class="st0" d="M719.4,334.9h26.2c2.3,0,4.1-1.8,4.1-3.9v-49.1c0-2.2-1.8-3.9-4.1-3.9h-26.2c-2.3,0-4.1,1.8-4.1,3.9V331
			C715.3,333.1,717.1,334.9,719.4,334.9z M723.5,297.4v-11.6h18v11.6H723.5z M723.5,327v-21.8h18V327H723.5z"/>
		<path class="st0" d="M769.7,334.9h26.2c2.3,0,4.1-1.8,4.1-3.9v-49.1c0-2.2-1.8-3.9-4.1-3.9h-26.2c-2.3,0-4.1,1.8-4.1,3.9V331
			C765.6,333.1,767.5,334.9,769.7,334.9z M773.8,297.4v-11.6h18v11.6H773.8z M773.8,327v-21.8h18V327H773.8z"/>
		<path class="st0" d="M820.1,334.9h26.2c2.3,0,4.1-1.8,4.1-3.9v-49.1c0-2.2-1.8-3.9-4.1-3.9h-26.2c-2.3,0-4.1,1.8-4.1,3.9V331
			C816,333.1,817.8,334.9,820.1,334.9z M824.2,297.4v-11.6h18v11.6H824.2z M824.2,327v-21.8h18V327H824.2z"/>
		<path class="st0" d="M870.4,334.9h26.2c2.3,0,4.1-1.8,4.1-3.9v-49.1c0-2.2-1.8-3.9-4.1-3.9h-26.2c-2.3,0-4.1,1.8-4.1,3.9V331
			C866.3,333.1,868.2,334.9,870.4,334.9z M874.6,297.4v-11.6h18v11.6H874.6z M874.6,327v-21.8h18V327H874.6z"/>
		<path class="st0" d="M964.6,274.2h-20.1c-2.3,0-4.1,1.8-4.1,3.9v46.7c0,2.2,1.8,3.9,4.1,3.9h20.1c2.3,0,4.1-1.8,4.1-3.9v-46.7
			C968.7,276,966.9,274.2,964.6,274.2z M960.5,282.1v38.8h-11.9v-38.8H960.5z"/>
		<path class="st0" d="M247,328.8h20.1c2.3,0,4.1-1.8,4.1-3.9v-46.7c0-2.2-1.8-3.9-4.1-3.9H247c-2.3,0-4.1,1.8-4.1,3.9v46.7
			C242.9,327,244.8,328.8,247,328.8z M251.1,320.9v-38.8h11.9v38.8H251.1z"/>
		<path class="st0" d="M1001.9,274.2h-20.2c-2.3,0-4.1,1.8-4.1,3.9v46.7c0,2.2,1.8,3.9,4.1,3.9h20.2c2.3,0,4.1-1.8,4.1-3.9v-46.7
			C1006,276,1004.2,274.2,1001.9,274.2z M997.8,282.1v38.8h-11.9v-38.8H997.8z"/>
		<path class="st0" d="M312.5,334.7h17.8c2.3,0,4.1-1.8,4.1-4v-53.1c0-2.2-1.8-3.9-4.1-3.9h-17.8c-2.3,0-4.1,1.8-4.1,3.9v53.1
			C308.4,332.9,310.2,334.7,312.5,334.7z M316.6,326.8v-45.2h9.5v45.2H316.6z"/>
		<path class="st0" d="M351.5,334.7h17.7c2.3,0,4.1-1.8,4.1-4v-53.1c0-2.2-1.8-3.9-4.1-3.9h-17.7c-2.3,0-4.1,1.8-4.1,3.9v53.1
			C347.4,332.9,349.2,334.7,351.5,334.7z M355.6,326.8v-45.2h9.5v45.2H355.6z"/>
		<path class="st0" d="M390.5,334.7h17.7c2.3,0,4.1-1.8,4.1-4v-53.1c0-2.2-1.8-3.9-4.1-3.9h-17.7c-2.3,0-4.1,1.8-4.1,3.9v53.1
			C386.4,332.9,388.2,334.7,390.5,334.7z M394.6,326.8v-45.2h9.5v45.2H394.6z"/>
		<path class="st0" d="M429.5,334.7h17.7c2.3,0,4.1-1.8,4.1-4v-53.1c0-2.2-1.8-3.9-4.1-3.9h-17.7c-2.3,0-4.1,1.8-4.1,3.9v53.1
			C425.3,332.9,427.2,334.7,429.5,334.7z M433.6,326.8v-45.2h9.5v45.2H433.6z"/>
		<path class="st0" d="M468.5,334.7h17.7c2.3,0,4.1-1.8,4.1-4v-53.1c0-2.2-1.8-3.9-4.1-3.9h-17.7c-2.3,0-4.1,1.8-4.1,3.9v53.1
			C464.3,332.9,466.2,334.7,468.5,334.7z M472.6,326.8v-45.2h9.5v45.2H472.6z"/>
		<path class="st0" d="M614.2,461.8c2.3,0,4.1-1.8,4.1-3.9v-35.8c0-9.1-7.8-16.6-17.4-16.6c-9.6,0-17.4,7.4-17.4,16.6v35.8
			c0,2.2,1.9,3.9,4.1,3.9c2.3,0,4.1-1.8,4.1-3.9v-35.8c0-4.8,4.1-8.7,9.1-8.7c5,0,9.2,3.9,9.2,8.7v35.8
			C610.1,460.1,611.9,461.8,614.2,461.8z"/>
		<path class="st0" d="M649,289.9v41.6c0,2.2,1.8,3.9,4.1,3.9h20.2c2.3,0,4.1-1.8,4.1-3.9v-41.6c0-0.1,0-0.4,0-0.8
			c0-0.5,0-1.1,0-1.5c0-7.8-6.2-13.9-14.1-13.9c-8,0-14.2,6.1-14.2,13.9c0,0.3,0,1,0,1.5C649,289.5,649,289.8,649,289.9z
			 M669.1,293.8v33.7h-11.9v-33.7H669.1z M663.2,280.6c3.4,0,6.2,2.2,7,5.3h-14.1C656.9,282.8,659.8,280.6,663.2,280.6z"/>
		<path class="st0" d="M614.4,287.6c0-7.8-6.2-13.9-14.2-13.9c-8,0-14.2,6.1-14.2,13.9c0,0.3,0,1,0,1.5c0,0.4,0,0.6,0,0.8v41.6
			c0,2.2,1.8,3.9,4.1,3.9h20.2c2.3,0,4.1-1.8,4.1-3.9v-41.6c0-0.1,0-0.4,0-0.8C614.4,288.6,614.4,287.9,614.4,287.6z M606.2,293.8
			v33.7h-11.9v-33.7H606.2z M600.2,280.6c3.4,0,6.2,2.2,7,5.3h-14.1C594,282.8,596.9,280.6,600.2,280.6z"/>
		<path class="st0" d="M551.9,287.6c0-7.8-6.2-13.9-14.1-13.9c-8,0-14.2,6.1-14.2,13.9c0,0.3,0,1,0,1.5c0,0.4,0,0.6,0,0.8v41.6
			c0,2.2,1.9,3.9,4.1,3.9h20.2c2.3,0,4.1-1.8,4.1-3.9v-41.6c0-0.1,0-0.4,0-0.8C551.9,288.6,551.9,287.9,551.9,287.6z M543.7,293.8
			v33.7h-11.9v-33.7H543.7z M537.7,280.6c3.4,0,6.2,2.2,7,5.3h-14.1C531.5,282.8,534.4,280.6,537.7,280.6z"/>
		<path class="st0" d="M184.2,334.3h24.4c2.3,0,4.1-1.8,4.1-3.9v-40.4l0-2.7c0-10.4-6.7-17.7-16.2-17.7c-4.6,0-8.7,1.6-11.6,4.7
			c-3.2,3.3-4.8,7.9-4.7,13v43.1C180.1,332.5,181.9,334.3,184.2,334.3z M204.4,312.9v13.5h-16.1v-13.5H204.4z M204.4,291.4V305
			h-16.1v-13.6H204.4z M196.4,276.4c6,0,8.1,4.6,8.7,7.2h-17.3C188.6,279.1,191.8,276.4,196.4,276.4z"/>
		<path class="st0" d="M818.9,434.1h73.2c2.3,0,4.1-1.8,4.1-3.9v-36c0-2.2-1.8-3.9-4.1-3.9h-73.2c-2.3,0-4.1,1.8-4.1,3.9v36
			C814.8,432.3,816.6,434.1,818.9,434.1z M823,408.2v-10.1h16v10.1H823z M823,426.2v-10.1h16v10.1H823z M847.2,408.2v-10.1h16.2
			v10.1H847.2z M847.2,426.2v-10.1h16.2v10.1H847.2z M871.6,408.2v-10.1H888v10.1H871.6z M871.6,426.2v-10.1H888v10.1H871.6z"/>
		<path class="st0" d="M955.2,385c-2.3,0-4.1,1.8-4.1,3.9v45.8c0,2.2,1.8,3.9,4.1,3.9h36.5c2.3,0,4.1-1.8,4.1-3.9v-45.8
			c0-2.2-1.8-3.9-4.1-3.9H955.2z M987.6,415.8v15h-10v-15H987.6z M987.6,392.9v15h-10v-15H987.6z M969.4,415.8v15h-10.1v-15H969.4z
			 M969.4,392.9v15h-10.1v-15H969.4z"/>
		<path class="st0" d="M268,438.7c2.3,0,4.1-1.8,4.1-3.9v-45.8c0-2.2-1.8-3.9-4.1-3.9h-36.5c-2.3,0-4.1,1.8-4.1,3.9v45.8
			c0,2.2,1.8,3.9,4.1,3.9H268z M235.5,407.9v-15h10.1v15H235.5z M235.5,430.8v-15h10.1v15H235.5z M253.8,407.9v-15h10v15H253.8z
			 M253.8,430.8v-15h10v15H253.8z"/>
		<path class="st0" d="M404.4,434.1h73.2c2.3,0,4.1-1.8,4.1-3.9v-36c0-2.2-1.9-3.9-4.1-3.9h-73.2c-2.3,0-4.1,1.8-4.1,3.9v36
			C400.3,432.3,402.1,434.1,404.4,434.1z M408.5,408.2v-10.1h16v10.1H408.5z M408.5,426.2v-10.1h16v10.1H408.5z M432.7,408.2v-10.1
			h16.2v10.1H432.7z M432.7,426.2v-10.1h16.2v10.1H432.7z M457.1,408.2v-10.1h16.4v10.1H457.1z M457.1,426.2v-10.1h16.4v10.1H457.1z
			"/>
		<path class="st0" d="M1177.3,453.9h-250V352.7h92.9v70.3c0,2.2,1.9,4,4.2,4c2.4,0,4.2-1.9,4.2-3.5l-0.2-224.9
			c0-2.6-1.7-4.5-4.1-4.5h-21.1c-0.3-1.9-2-3.3-4.1-3.3h-4.8c-2.5-4.3-6.8-7.6-12-9.3l-5.6-5.4c-1.6-1.5-4.2-1.5-5.8,0l-5.3,5.1
			c-5.6,1.7-10.1,5.1-12.8,9.6h-5c-2,0-3.7,1.4-4,3.3h-20.7c-0.3,0-0.6,0.1-0.9,0.2l-0.1,0l-37.4-0.1c-0.6-0.1-1.5,0.2-2.2,0.6
			l-4.3,2.5h-39.1l-8.5-8.2c-0.8-0.7-1.8-1.2-2.9-1.2h-41.1c-1.1,0-2.2,0.4-3,1.3l-7.7,8.1h-38.6l-3.1-2.3c-0.7-0.5-1.6-0.8-2.5-0.8
			l-32.9,0.1l0-3.3c0.3-1.3-0.2-2.6-1.1-3.5l-6.2-5.9c-1.6-1.5-4.2-1.5-5.8,0l-6.2,5.9c-0.9,0.9-1.3,2.1-1.2,3.3v4.1l-29.5,0.1
			l0-15.1c0.2-1.3-0.2-2.6-1.2-3.5l-6.2-5.9c-1.5-1.4-4.3-1.4-5.8,0l-6.2,5.9c-0.4,0.4-0.7,0.9-0.9,1.5c-0.7-0.4-1.4-0.7-2.3-0.7
			h-4.8c-2.5-4.3-6.8-7.6-12-9.3l-5.6-5.3c-1.6-1.5-4.2-1.5-5.8,0l-5.3,5.1c-5.6,1.7-10.1,5.1-12.8,9.6h-5c-0.8,0-1.6,0.2-2.2,0.7
			c-0.2-0.6-0.5-1.1-0.9-1.5l-6.2-5.9c-1.6-1.5-4.3-1.4-5.8,0l-6.2,5.9c-0.9,0.9-1.3,2.1-1.2,3.2v15.3l-28.8,0l0-3.8
			c0.2-1.3-0.2-2.6-1.1-3.5l-6.2-5.9c-1.5-1.5-4.2-1.5-5.8,0l-6.2,5.9c-0.9,0.9-1.3,2.1-1.1,3.3v4.1h-70.7l-0.4-0.3
			c-4.2-3.2-14.1-10.8-36.7-10.8c-23.1,0-33,7.6-37.3,10.9l-0.3,0.2h-65.6c-0.2,0-0.4,0-0.5,0.1c0,0-0.1,0-0.1,0l-133.7,0
			c-2.3,0-4.1,1.8-4.1,3.9l0,219.7c0,2.2,1.9,4,4.2,4c2.3,0,4.2-1.8,4.2-4v-65.8h125.1V454h-74.2v-42.3c0-2.2-1.8-3.9-4.1-3.9h-26.9
			c-2.3,0-4.1,1.8-4.1,3.9v42.2H4.2c-2.3,0-4.2,1.8-4.2,4c0,2.2,1.9,4,4.2,4h177.1c0.2,0,0.3,0,0.5-0.1c0,0,0,0,0.1,0h0.1
			c2.3,0,4.1-1.8,4.1-3.9v-42.3h18.7v42.3c0,2.2,1.9,3.9,4.1,3.9h102.3V454h-15.6v-92.2H503V454H396.3v7.9h141.7
			c2.3,0,4.1-1.8,4.1-3.9v-35.8c0-4.8,4.1-8.7,9.2-8.7c5,0,9.1,3.9,9.1,8.7v35.8c0,2.2,1.8,3.9,4.1,3.9c2.3,0,4.1-1.8,4.1-3.9v-35.8
			c0-9.1-7.8-16.6-17.4-16.6c-9.6,0-17.4,7.4-17.4,16.6V454h-22.6v-63.2h179.4v63.1h-22.4v-31.8c0-9.1-7.8-16.6-17.4-16.6
			c-9.6,0-17.4,7.4-17.4,16.6v35.8c0,2.2,1.8,3.9,4.1,3.9c2.3,0,4.1-1.8,4.1-3.9v-35.8c0-4.8,4.1-8.7,9.1-8.7c5,0,9.1,3.9,9.1,8.7
			v35.8c0,2,1.6,3.8,3.7,4h61.1c2.3,0,4.2-1.8,4.2-4.1v-37.6h36.8v37.7c0,2.2,1.8,3.9,4.1,3.9l0.1,0c0,0,0.1,0,0.1,0
			c0.1,0,0.3,0.1,0.5,0.1h406.8c2.3,0,4.2-1.8,4.2-4C1181.5,455.7,1179.6,453.9,1177.3,453.9z M927.2,202.1h20.6c2,0,3.7-1.4,4-3.3
			h3.5c1.7,0,3.2-1,3.8-2.5c1.5-3.7,5-6.5,9.6-7.6c0.7-0.2,1.4-0.5,1.9-1l3.2-3l2.3,2.2c0.6,1,1.5,1.6,2.5,1.9
			c4.4,1.2,7.7,3.9,9.2,7.6c0.6,1.5,2.1,2.5,3.8,2.5h3.3c0.3,1.9,2,3.3,4,3.3h20.7V224h-5.2v-0.2c0-1.9-1.6-3.4-3.5-3.4
			c-1.9,0-3.5,1.5-3.5,3.4v0.2h-3.8v-0.2c0-1.9-1.6-3.4-3.5-3.4c-1.9,0-3.5,1.5-3.5,3.4v0.2H993v-0.2c0-1.9-1.6-3.4-3.5-3.4
			c-1.9,0-3.5,1.5-3.5,3.4v0.2h-3.8v-0.2c0-1.9-1.6-3.4-3.5-3.4c-1.9,0-3.5,1.5-3.5,3.4v0.2h-3.8v-0.2c0-1.9-1.6-3.4-3.5-3.4
			c-1.9,0-3.5,1.5-3.5,3.4v0.2h-3.7v-0.2c0-1.9-1.6-3.4-3.5-3.4c-1.9,0-3.5,1.5-3.5,3.4v0.2h-3.8v-0.2c0-1.9-1.6-3.4-3.5-3.4
			c-1.9,0-3.5,1.5-3.5,3.4v0.2h-3.8v-0.2c0-1.9-1.6-3.4-3.5-3.4c-1.9,0-3.5,1.5-3.5,3.4v0.2h-4.9V202.1z M927.2,230.7h92.9v21.5
			l-92.9,0V230.7z M927.2,260.2h10.1c0.3,0,0.5-0.1,0.7-0.1l82.1,0v84.7h-92.9V260.2z M287.1,344.8H162v-84.7h125.1V344.8z
			 M287.1,252.2H162v-21.8h125.1V252.2z M287.1,224h-5.8v-0.3c0-1.9-1.6-3.4-3.5-3.4c-1.9,0-3.5,1.5-3.5,3.4v0.3H271v-0.3
			c0-1.9-1.6-3.4-3.5-3.4c-1.9,0-3.5,1.5-3.5,3.4v0.3h-3.4v-0.3c0-1.9-1.6-3.4-3.5-3.4c-1.9,0-3.5,1.5-3.5,3.4v0.3h-3.8v-0.3
			c0-1.9-1.6-3.4-3.5-3.4c-1.9,0-3.5,1.5-3.5,3.4v0.3H239v-0.3c0-1.9-1.6-3.4-3.5-3.4c-1.9,0-3.5,1.5-3.5,3.4v0.3h-3.8v-0.3
			c0-1.9-1.6-3.4-3.5-3.4c-1.9,0-3.5,1.5-3.5,3.4v0.3h-3.8v-0.3c0-1.9-1.6-3.4-3.5-3.4c-1.9,0-3.5,1.5-3.5,3.4v0.3h-3.8v-0.3
			c0-1.9-1.6-3.4-3.5-3.4c-1.9,0-3.5,1.5-3.5,3.4v0.3h-3.7v-0.3c0-1.9-1.6-3.4-3.5-3.4c-1.9,0-3.5,1.5-3.5,3.4v0.3h-3.8v-0.3
			c0-1.9-1.6-3.4-3.5-3.4c-1.9,0-3.5,1.5-3.5,3.4v0.3h-3.8v-0.3c0-1.9-1.6-3.4-3.5-3.4s-3.5,1.5-3.5,3.4v0.3H162v-21.3h125.1V224z
			 M295.5,202.8h63.7c1,0,2.1-0.4,2.8-1l0.1-0.1c1.5-1.7,10.4-9.9,33.1-9.9c22.3,0,31.1,8.3,32.7,10c0.8,0.7,1.8,1.1,2.9,1.1h72.2
			V224H499v-0.2c0-1.9-1.6-3.4-3.5-3.4c-1.9,0-3.5,1.5-3.5,3.4v0.2h-3.8v-0.2c0-1.9-1.6-3.4-3.5-3.4c-1.9,0-3.5,1.5-3.5,3.4v0.2
			h-3.8v-0.2c0-1.9-1.6-3.4-3.5-3.4c-1.9,0-3.5,1.5-3.5,3.4v0.2h-3.8v-0.2c0-1.9-1.6-3.4-3.5-3.4c-1.9,0-3.5,1.5-3.5,3.4v0.2h-3.8
			v-0.2c0-1.9-1.6-3.4-3.5-3.4c-1.9,0-3.5,1.5-3.5,3.4v0.2h-3.8v-0.2c0-1.9-1.6-3.4-3.5-3.4c-1.9,0-3.5,1.5-3.5,3.4v0.2h-3.8v-0.2
			c0-1.9-1.6-3.4-3.5-3.4c-1.9,0-3.5,1.5-3.5,3.4v0.2h-3.8v-0.2c0-1.9-1.6-3.4-3.5-3.4s-3.5,1.5-3.5,3.4v0.2H413v-0.2
			c0-1.9-1.6-3.4-3.5-3.4c-1.9,0-3.5,1.5-3.5,3.4v0.2h-3.3v-0.2c0-1.9-1.6-3.4-3.5-3.4c-1.9,0-3.5,1.5-3.5,3.4v0.2h-3.4v-0.2
			c0-1.9-1.6-3.4-3.5-3.4c-1.9,0-3.5,1.5-3.5,3.4v0.2h-3.7v-0.2c0-1.9-1.6-3.4-3.5-3.4c-1.9,0-3.5,1.5-3.5,3.4v0.2h-3.8v-0.2
			c0-1.9-1.6-3.4-3.5-3.4c-1.9,0-3.5,1.5-3.5,3.4v0.2h-3.8v-0.2c0-1.9-1.6-3.4-3.5-3.4c-1.9,0-3.5,1.5-3.5,3.4v0.2h-3.8v-0.2
			c0-1.9-1.6-3.4-3.5-3.4c-1.9,0-3.5,1.5-3.5,3.4v0.2h-3.8v-0.2c0-1.9-1.6-3.4-3.5-3.4c-1.9,0-3.5,1.5-3.5,3.4v0.2h-3.8v-0.2
			c0-1.9-1.6-3.4-3.5-3.4c-1.9,0-3.5,1.5-3.5,3.4v0.2h-3.8v-0.2c0-1.9-1.6-3.4-3.5-3.4c-1.9,0-3.5,1.5-3.5,3.4v0.2h-3.8v-0.2
			c0-1.9-1.6-3.4-3.5-3.4s-3.5,1.5-3.5,3.4v0.2h-3.5V202.8z M503,353.8H295.5v-93.7H503V353.8z M503.2,252.2H295.5v-21.8h207.7
			V252.2z M648.7,202.9l29.5-0.1v20.7h-29.5V202.9z M636.4,180.6l2-1.9l2,1.9v42.9h-4.1V180.6z M572.9,184.8l9.5,0.1
			c1.7,0,3.2-1,3.8-2.5c1.5-3.7,5-6.5,9.6-7.6c0.7-0.2,1.4-0.5,1.9-1l3.2-3l2.3,2.2c0.6,0.9,1.4,1.6,2.5,1.9
			c4.4,1.2,7.7,3.9,9.2,7.6c0.6,1.5,2.1,2.5,3.8,2.5l9.4,0v38.6h-55.2V184.8z M560.6,180.6l2-1.9l2,1.9v42.9h-4.1V180.6z
			 M523.6,202.8l28.8,0v20.7h-28.8V202.8z M690.6,382.8H511.4v-21.1h179.2V382.8z M511.4,353.8v-93.7h53.2v93.7H511.4z M573,353.8
			v-93.7h55v93.7H573z M690.6,353.8h-54.2v-93.7h54.2V353.8z M690.6,252.2H511.2l0-60.4l2-1.9l2,1.9v35.6c0,2.2,1.8,3.9,4.1,3.9
			h162.8c2.3,0,4.1-1.8,4.1-3.9v-35.6l2-1.9l2.3,2.2L690.6,252.2z M884.5,194.8L884.5,194.8L884.5,194.8L884.5,194.8z M729,412.3
			c2.2-9.1,9.3-15,18.3-15c9.1,0,16.3,5.9,18.4,15H729z M918.9,453.9H774l0-34.2c0,0-0.1-1.7-0.1-2.9c0-15.6-11.4-27.3-26.5-27.3
			c-15.2,0-26.6,11.7-26.6,27.3c0,1.3,0,3,0,3v34.2h-21.9v-92.1h220V453.9z M918.9,353.8h-220v-93.6h220V353.8z M918.9,252.2h-220
			v-21.4h220V252.2z M918.9,224H915v-0.2c0-1.9-1.6-3.4-3.5-3.4c-1.9,0-3.5,1.5-3.5,3.4v0.2h-3.8v-0.2c0-1.9-1.6-3.4-3.5-3.4
			c-1.9,0-3.5,1.5-3.5,3.4v0.2h-3.8v-0.2c0-1.9-1.6-3.4-3.5-3.4c-1.9,0-3.5,1.5-3.5,3.4v0.2h-3.8v-0.2c0-1.9-1.6-3.4-3.5-3.4
			c-1.9,0-3.5,1.5-3.5,3.4v0.2h-3.6v-0.2c0-1.9-1.6-3.4-3.5-3.4c-1.9,0-3.5,1.5-3.5,3.4v0.2h-3.8v-0.2c0-1.9-1.6-3.4-3.5-3.4
			c-1.9,0-3.5,1.5-3.5,3.4v0.2h-3.8v-0.2c0-1.9-1.6-3.4-3.5-3.4c-1.9,0-3.5,1.5-3.5,3.4v0.2h-3.8v-0.2c0-1.9-1.6-3.4-3.5-3.4
			c-1.9,0-3.5,1.5-3.5,3.4v0.2H829v-0.2c0-1.9-1.6-3.4-3.5-3.4c-1.9,0-3.5,1.5-3.5,3.4v0.2h-3.7v-0.2c0-1.9-1.6-3.4-3.5-3.4
			c-1.9,0-3.5,1.5-3.5,3.4v0.2h-3.8v-0.2c0-1.9-1.6-3.4-3.5-3.4c-1.9,0-3.5,1.5-3.5,3.4v0.2h-3.8v-0.2c0-1.9-1.6-3.4-3.5-3.4
			c-1.9,0-3.5,1.5-3.5,3.4v0.2h-4.1v-0.2c0-1.9-1.6-3.4-3.5-3.4c-1.9,0-3.5,1.5-3.5,3.4v0.2h-3.8v-0.2c0-1.9-1.6-3.4-3.5-3.4
			s-3.5,1.5-3.5,3.4v0.2H764v-0.2c0-1.9-1.6-3.4-3.5-3.4c-1.9,0-3.5,1.5-3.5,3.4v0.2h-3.8v-0.2c0-1.9-1.6-3.4-3.5-3.4
			c-1.9,0-3.5,1.5-3.5,3.4v0.2h-3.8v-0.2c0-1.9-1.6-3.4-3.5-3.4c-1.9,0-3.5,1.5-3.5,3.4v0.2h-3.7v-0.2c0-1.9-1.6-3.4-3.5-3.4
			c-1.9,0-3.5,1.5-3.5,3.4v0.2h-3.8v-0.2c0-1.9-1.6-3.4-3.5-3.4c-1.9,0-3.5,1.5-3.5,3.4v0.2h-3.8v-0.2c0-1.9-1.6-3.4-3.5-3.4
			c-1.9,0-3.5,1.5-3.5,3.4v0.2h-4.5v-21.8l31.5-0.1l3.1,2.4c0.7,0.5,1.6,0.8,2.5,0.8h41.8c1.2,0,2.2-0.5,3-1.3l7.7-8.1H826l8.5,8.2
			c0.8,0.7,1.8,1.1,2.9,1.1h41.9c0.8,0,1.5-0.2,2.2-0.6l4.3-2.5l29.5,0.1h3.7L918.9,224z"/>
		<path class="st0" d="M370.9,453.4l0-34.2c0,0-0.1-1.7-0.1-2.9c0-15.6-11.4-27.3-26.5-27.3c-15.2,0-26.6,11.7-26.6,27.3
			c0,1.3,0,3,0,3v34.2h-13.6v8.1h17.7c2.3,0,4.2-1.8,4.2-4.1v-37.6h36.8v37.7c0,2.2,1.8,3.9,4.1,3.9l0.1,0c0,0,0.1,0,0.1,0
			c0.1,0,0.3,0.1,0.5,0.1h32.3v-8.1H370.9z M326,411.8c2.2-9.1,9.3-15,18.3-15c9.1,0,16.3,5.9,18.4,15H326z"/>
		<g>
			<path class="st0" d="M600.2,0c-2.2,0-3.9,2.4-3.9,4.3v64.9c0,2,1.8,3.7,3.9,3.7c2.2,0,3.9-1.7,3.9-3.7V4.3
				C604.1,2.4,602.4,0,600.2,0z"/>
			<path class="st0" d="M532,30.4c-0.4,0-0.8,0.1-1.2,0.2c-1,0.4-1.8,1.1-2.2,2c-0.4,0.9-0.5,1.8-0.1,2.8L546.5,78
				c0.7,2,3,3,5.1,2.3c1-0.3,1.8-1,2.2-1.9c0.4-0.9,0.5-1.8,0.1-2.8l-18.1-42.7C535.3,31.4,533.7,30.4,532,30.4z"/>
			<path class="st0" d="M470.2,59c-1.1,0-2,0.3-2.6,0.9c-0.8,0.7-1.2,1.5-1.2,2.6c0,1,0.3,1.9,1,2.6l35.2,36.2
				c1.4,1.5,4,1.6,5.6,0.2c0.8-0.7,1.2-1.6,1.2-2.6c0-1-0.3-1.9-1-2.6l-35.3-36.2C472.5,59.4,471.4,59,470.2,59z"/>
			<path class="st0" d="M479,16c-0.8,0-1.5,0.2-2.1,0.6c-0.9,0.5-1.5,1.4-1.7,2.3c-0.2,1,0,1.9,0.6,2.8l48.3,66.1
				c0.6,0.9,1.6,1.5,2.7,1.7c0.3,0,0.5,0,0.7,0c0.8,0,1.5-0.2,2.2-0.6c0.9-0.5,1.4-1.3,1.6-2.3c0.2-1,0-1.9-0.6-2.7l-48.3-66.2
				C481.7,16.7,480.4,16,479,16z"/>
			<path class="st0" d="M565.1,24.2c-0.3,0-0.5,0-0.8,0.1c-1.1,0.2-1.9,0.8-2.5,1.7c-0.5,0.8-0.7,1.7-0.4,2.7l11.2,43
				c0.2,1,0.9,1.9,1.9,2.4c0.9,0.5,2.1,0.6,2.8,0.4c1.1-0.2,2-0.8,2.5-1.7c0.5-0.8,0.7-1.8,0.5-2.7l-11.2-43
				C568.6,25.4,566.9,24.2,565.1,24.2z"/>
			<path class="st0" d="M444.9,80.7c-1.3,0-2.5,0.5-3.1,1.2c-0.7,0.8-1,1.7-0.9,2.7c0.1,1,0.6,1.8,1.4,2.4l39.9,31.6
				c0.6,0.4,1.2,0.7,1.9,0.8l0.8,0l0.4,0c0.9-0.1,1.7-0.6,2.4-1.3c0.7-0.8,1-1.7,0.9-2.6c-0.1-1-0.6-1.8-1.4-2.5l-39.9-31.6
				C446.7,81,445.8,80.7,444.9,80.7z"/>
			<path class="st0" d="M404.5,137.7c-1.8,0-3.5,1.2-3.9,2.7c-0.3,0.9-0.2,1.9,0.3,2.7c0.5,0.9,1.3,1.5,2.4,1.8l49.9,13.3
				c1,0.2,2.2,0.1,3.2-0.4c0.8-0.5,1.4-1.2,1.7-2.1c0.3-0.9,0.2-1.9-0.3-2.7c-0.5-0.9-1.4-1.5-2.4-1.8l-49.9-13.4
				C405.2,137.8,404.8,137.7,404.5,137.7z"/>
			<path class="st0" d="M408.6,100.4c-1.5,0-3,0.8-3.6,2.1c-0.4,0.8-0.5,1.8-0.2,2.7c0.3,1,1,1.7,1.9,2.2l60.7,29.9
				c1.9,0.9,4.4,0.1,5.2-1.6c0.5-0.9,0.6-1.9,0.2-2.8c-0.3-1-1-1.7-1.9-2.1l-60.7-29.9C409.8,100.5,409.2,100.4,408.6,100.4z"/>
			<path class="st0" d="M668.5,30.4c-1.7,0-3.4,1-3.9,2.4l-18.1,42.9c-0.3,0.8-0.3,1.8,0.1,2.7c0.4,0.9,1.2,1.6,2.2,1.9
				c2.2,0.8,4.4-0.4,5.1-2.2L672,35.2c0.3-0.8,0.3-1.8-0.1-2.6c-0.4-0.9-1.2-1.6-2.2-2C669.3,30.5,668.9,30.4,668.5,30.4z"/>
			<path class="st0" d="M730.2,59c-1.2,0-2.3,0.4-3,1.1L692,96.3c-0.7,0.7-1,1.6-1,2.6c0,1,0.5,1.9,1.2,2.5c1.5,1.4,4,1.3,5.6-0.2
				L733,65c0.7-0.7,1.1-1.7,1.1-2.6c0-1-0.5-1.9-1.2-2.6C732.2,59.3,731.2,59,730.2,59z"/>
			<path class="st0" d="M720.9,16.1c-1.4,0-2.8,0.6-3.4,1.6L669.7,84c-0.5,0.7-0.7,1.7-0.5,2.6c0.2,1,0.8,1.8,1.7,2.4
				c0.6,0.4,1.5,0.6,2.2,0.6c0.2,0,0.4,0,0.7,0c1-0.2,2-0.8,2.6-1.6l47.8-66.3c0.5-0.7,0.7-1.7,0.5-2.6c-0.2-1-0.8-1.8-1.7-2.4
				C722.4,16.3,721.7,16.1,720.9,16.1z"/>
			<path class="st0" d="M635.3,24.2c-1.8,0-3.5,1.2-3.8,2.9l-11.2,43.2c-0.2,0.8,0,1.8,0.5,2.6c0.6,0.9,1.4,1.5,2.5,1.7
				c1,0.2,2,0,2.8-0.4c1-0.5,1.6-1.4,1.9-2.3l11.2-43.2c0.2-0.8,0-1.8-0.5-2.6c-0.6-0.9-1.4-1.5-2.5-1.7
				C635.9,24.2,635.6,24.2,635.3,24.2z"/>
			<path class="st0" d="M755.6,80.7c-1,0-1.8,0.3-2.5,0.8L713.3,113c-0.8,0.6-1.3,1.5-1.4,2.5c-0.1,1,0.2,1.9,0.9,2.7
				c0.6,0.7,1.5,1.2,2.6,1.3l0.5,0c0.9,0,1.8-0.3,2.5-0.9l39.8-31.6c0.8-0.6,1.3-1.5,1.4-2.4c0.1-1-0.2-1.9-0.8-2.7
				C758,81.2,756.8,80.7,755.6,80.7z"/>
			<path class="st0" d="M796,137.7c-0.3,0-0.7,0-1,0.1l-49.8,13.3c-1,0.3-1.9,0.9-2.4,1.8c-0.5,0.8-0.6,1.8-0.3,2.8
				c0.2,0.8,0.9,1.6,1.7,2.1c0.9,0.5,2.2,0.7,3.1,0.4l49.9-13.3c1-0.3,1.9-0.9,2.4-1.8c0.5-0.8,0.6-1.8,0.3-2.8
				C799.4,138.9,797.8,137.7,796,137.7z"/>
			<path class="st0" d="M791.4,100.4c-0.6,0-1.2,0.1-1.7,0.4l-60.3,29.9c-1,0.5-1.7,1.2-2,2.2c-0.3,0.9-0.2,1.8,0.2,2.7
				c0.9,1.8,3.1,2.7,5.4,1.7l60.2-29.8c1-0.5,1.7-1.2,2-2.2c0.3-0.9,0.2-1.9-0.2-2.7C794.4,101.2,792.9,100.4,791.4,100.4z"/>
		</g>
	</g>
</g>
</svg>
