<?xml version="1.0" encoding="utf-8"?>
<!-- Generator: Adobe Illustrator 22.1.0, SVG Export Plug-In . SVG Version: 6.00 Build 0)  -->
<svg version="1.1" id="Layer_1" xmlns="http://www.w3.org/2000/svg" xmlns:xlink="http://www.w3.org/1999/xlink" x="0px" y="0px"
	 viewBox="0 0 512 512" style="enable-background:new 0 0 512 512;" xml:space="preserve">
<style type="text/css">
	.st0{fill:#231F20;}
	.st1{fill:#FFFFFF;}
</style>
<path class="st0" d="M76.8,0h358.4C477.6,0,512,34.4,512,76.8v358.4c0,42.4-34.4,76.8-76.8,76.8H76.8C34.4,512,0,477.6,0,435.2V76.8
	C0,34.4,34.4,0,76.8,0z"/>
<path class="st1" d="M437,152c-11.9,7.9-25.8,12-40,12c15.2-9,26.6-23.2,32-40c-12.6,10.7-28.5,16.7-45,17
	c-27.8-28.5-73.4-29-101.8-1.2C264.6,157,257,181.9,262,206c-56.6-3-109.3-29.9-145-74c-17.9,32.3-8.4,73,22,94
	c-11.1,0.2-22-2.2-32-7c0.6,33.2,23.7,61.6,56,69c-10.5,2.7-21.4,3.1-32,1c9.4,29.3,36.3,49.3,67,50c-31.6,19.2-68,29.2-105,29
	c92.5,60.4,216.4,34.4,276.8-58.1c23.4-35.8,34.7-78.2,32.2-120.9C415.2,178.2,427,165.8,437,152"/>
</svg>
