<?xml version="1.0" encoding="utf-8"?>
<!-- Generator: Adobe Illustrator 22.1.0, SVG Export Plug-In . SVG Version: 6.00 Build 0)  -->
<svg version="1.1" id="Layer_1" xmlns="http://www.w3.org/2000/svg" xmlns:xlink="http://www.w3.org/1999/xlink" x="0px" y="0px"
	 viewBox="0 0 1182.9 418.4" style="enable-background:new 0 0 1182.9 418.4;" xml:space="preserve">
<g id="kRUC0s_2_">
	<g>
		<g>
			<g>
				<path d="M578.9,0c9.4,1.8,19.1,2.9,28.3,5.7C664.1,22.6,700.5,60,716.6,117c1.9,6.7,2.8,13.6,3.8,20.5c0.7,4.5,0.8,9,1.2,14.8
					c-10.1-7.9-19.3-15-28.8-22.5c1.9-0.8,3.3-1.3,4.7-1.9c-11.5,2.2-15.1-9.3-23.7-12.3c0.1-0.4,0.1-0.8,0.2-1.2
					c5-2.5,9.9-4.9,14.9-7.4c-0.1-0.3-0.2-0.5-0.3-0.8c-4.6,1.4-9.4,2.5-13.9,4.2c-3.3,1.3-5.9,1.1-8.5-1.4
					c-2.5-2.4-5.4-4.4-8.6-6.9c7.2-5.1,14.1-10,20.9-14.9c-0.1-0.3-0.3-0.6-0.4-0.9c-2.2,1.1-4.5,2.1-6.7,3.2
					c-3.2,1.6-6.4,3.4-9.7,5c-9.6,4.8-10.1,4.7-18.3-4.4c7.4-6.9,14.9-13.8,22.4-20.7c-0.4-0.4-0.7-0.8-1.1-1.2
					c-8.5,6.4-17,12.8-25.7,19.3c-2.8-2.2-5.6-4.3-8.7-6.7c6.4-9.3,12.7-18.5,19-27.7c-12.1,11.6-22.6,25.1-39,31.8
					c6.9-15.1,13.8-30.2,20.7-45.3c-0.3-0.1-0.5-0.3-0.8-0.4c-11.8,18.2-23.6,36.4-35.4,54.6c-0.4-0.1-0.8-0.3-1.1-0.4
					c5.5-21,11-42,16.4-63c-0.3-0.1-0.5-0.2-0.8-0.3c-8.6,20.3-17.2,40.7-25.8,61c-0.3-0.1-0.6-0.1-0.9-0.2
					c1.8-22.6,3.7-45.1,5.5-67.7c-0.2,0-0.4-0.1-0.6-0.1c-5.1,22.2-10.2,44.4-15.3,66.6c-0.3,0-0.6-0.1-0.8-0.1
					c-2.1-22.1-4.1-44.2-6.2-66.3c-0.3,0-0.5,0-0.8,0c-1.1,22-2.3,44.1-3.4,66.1c-0.3,0-0.7,0.1-1,0.1
					c-5.9-21.3-11.7-42.5-17.6-63.8c-0.3,0-0.5,0.1-0.8,0.1c2.8,22.2,5.6,44.4,8.3,66.6c-0.2,0.1-0.5,0.2-0.7,0.3
					c-9.3-19.5-18.5-39-27.8-58.5c-0.3,0.1-0.7,0.3-1,0.4c6.3,20.6,12.7,41.2,19,61.8c-0.2,0.1-0.5,0.3-0.7,0.4
					c-12.4-17.5-24.8-34.9-37.2-52.4c-0.3,0.2-0.7,0.4-1,0.6c9.7,18.9,19.3,37.8,29,56.6c-0.4,0.3-0.8,0.7-1.2,1
					c-14.6-15.4-29.2-30.7-43.9-46.1c-0.6,0.6-1.3,1.2-1.9,1.7c12.9,17.1,25.9,34.2,38.8,51.3c-0.2,0.2-0.4,0.4-0.6,0.6
					c-18-12.4-36-24.8-54-37.3c-0.2,0.2-0.4,0.5-0.6,0.7c14.7,13.7,29.4,27.3,44.1,41c-0.1,0.4-0.2,0.9-0.4,1.3
					c-1.7-0.3-3.5-0.2-5-0.9c-15.7-7.1-31.3-14.3-47-21.5c-0.7-0.3-1.4-0.6-2.6,0.1c13.7,8.9,27.5,17.8,41.3,26.7
					c-5.5,3.9-6.5,4-12,2.6c-12.5-3.3-25-6.6-37.6-9.9c-0.6-0.1-1.2-0.1-2,0.5c11.2,4.8,22.5,9.6,33.7,14.3
					c-12.3,8.6-25.6,9.6-39.6,6.1c0,0.5,0.1,0.9,0.1,1.4c4.5,1.1,8.9,2.2,14.6,3.6c-15,6.2-28.8,12-44.2,18.4
					c1.5-12.3,1.7-23.6,4.3-34.3C429,61.3,467.5,21.5,529,4.5c7.9-2.2,16.1-3,24.2-4.5C561.8,0,570.4,0,578.9,0z"/>
			</g>
		</g>
		<g>
			<g>
				<path d="M265.1,418.4c-4.7-13.4-9.4-26.7-14.1-40c0.7-0.4,1-0.7,1.2-0.7c8.2-0.4,8.2-0.4,10.6,7.4c1.8,5.9,3.6,11.8,6.3,17.9
					c2.8-8.4,5.7-16.7,8.5-25c7.6-0.9,7.6-0.9,10,6.2c2.1,6.4,4.2,12.8,6.6,20.2c2.2-7.2,4.2-13.3,6.1-19.5c2.4-8,2.4-8,11.2-6.9
					c-4.4,13.5-8.7,26.9-13.1,40.4c-2.5,0-5.1,0-7.6,0c-3-8.2-6-16.5-9-24.7c-0.4-0.1-0.7-0.1-1.1-0.2c-2.7,8.3-5.3,16.6-8,24.9
					C270.2,418.4,267.7,418.4,265.1,418.4z"/>
			</g>
		</g>
		<g>
			<g>
				<path d="M744.4,418.4c-7.5-3.2-13.6-7.6-15.4-16.3c-2.2-10.6,3.8-21,14.2-24.1c11.4-3.4,23.1,2.1,26.8,12.6
					c3.7,10.4-1.2,21.6-11.4,26c-1.3,0.6-2.5,1.2-3.7,1.8C751.3,418.4,747.8,418.4,744.4,418.4z M761.6,397.7
					c0-7.2-5.3-12.7-12.1-12.5c-6.6,0.1-11.8,5.6-11.8,12.4c0,7.1,5.3,12.4,12.3,12.4C756.9,409.9,761.6,404.9,761.6,397.7z"/>
			</g>
		</g>
		<g>
			<g>
				<path d="M490.5,418.4c-7.2-3-13.3-7-15.4-15.3c-2.8-10.9,3.1-21.8,13.9-25.1c11.3-3.5,23.1,2,26.9,12.5
					c3.8,10.6-1.2,21.8-11.7,26.3c-1.1,0.5-2.2,1.1-3.3,1.6C497.5,418.4,494,418.4,490.5,418.4z M507.6,397.6
					c-0.1-7.1-5.5-12.6-12.3-12.4c-6.7,0.2-11.6,5.6-11.6,12.6c0.1,7.1,5.3,12.3,12.3,12.2C502.9,409.9,507.7,404.7,507.6,397.6z"/>
			</g>
		</g>
		<g>
			<g>
				<path d="M438.2,418.4c-12.2-5.2-17-11.7-16-22.7c0.7-8.5,5.2-14.4,13.3-17.4c8.4-3,17.2-1.1,22.9,5.1c-1.6,2-3.3,4-5,6
					c-9.5-5.3-15.4-5.1-19.6,0.4c-3.6,4.7-3.2,12.4,0.7,16.7c4.3,4.8,10.9,4.6,19-0.9c1.5,2,3,4.1,5.1,6.8c-3.4,1.8-7.2,3.9-11,6
					C444.5,418.4,441.4,418.4,438.2,418.4z"/>
			</g>
		</g>
		<g>
			<g>
				<path d="M0,76.8c18.4,6.2,34.2,0,49.7-9.1c61.6-36.1,139.3-0.2,152.4,70.1c10.1,54.5-28.5,109-83.3,118.1
					C99.7,259,81.3,257,63.4,250c-7-2.7-9.6-0.9-9.6,6.7c0,16.2,0,32.3,0,48.5c0,1.7,0,3.4,0,5.5c-18.1,0-35.8,0-53.8,0
					C0,232.8,0,155,0,76.8z M147.5,155.5c0.1-25.4-20.3-46.1-45.5-46.2c-25.8-0.1-46.7,20.6-46.6,46.2c0.1,25.2,20.7,45.9,45.8,46.1
					C126.5,201.8,147.4,181,147.5,155.5z"/>
			</g>
		</g>
		<g>
			<g>
				<path d="M426.4,223.3c-6.9-14-11.6-29.7-13.7-46.1c-1.1-8.6-0.9-8.6,7-12.1c22.8-9.9,45.5-19.8,68.3-29.5
					c1.8-0.8,4.1-0.4,6.2-0.7c1.5-0.2,3.1-0.3,4.6-0.7c5.9-1.9,11.7-4,17.5-5.8c1.2-0.4,3.5-0.3,4,0.4c2.6,3.6,4.8,7.6,7.1,11.4
					c0.9,1.4,1.3,3.4,2.5,4.4c6.8,5.4,13.8,10.5,21.3,15.1c-3.4-4.4-6.8-8.8-10.5-13.7c7.8-5.4,15.4-10.6,23-15.9
					c17.9-12.3,35.8-24.5,53.6-36.9c2.6-1.8,4.3-2,7,0c31.1,23.1,62.4,46.1,93.7,69c2.7,2,3.2,3.9,2.9,7.1
					c-1.8,20.3-7.1,39.5-16.6,57.5c-1,1.8-3,3.6-5,4.3c-24.6,8.8-50.2,12.6-76.1,10c-18.8-1.9-37.5-5.6-56-9.7
					c-29.5-6.5-59-13.4-89.5-12.5C461,219.3,444.2,221.7,426.4,223.3z M705.1,173c0.2-0.5,0.3-1,0.5-1.5c-0.2-0.4-0.4-0.8-0.7-1.1
					c-16.7-12.4-33.3-24.7-50-37c-1-0.7-2.6-0.7-3.9-1.1c-2.1-0.7-4.6-0.9-6-2.2c-7.1-6.5-13.9-13.3-20.9-19.9
					c-0.4,0.1-0.8,0.3-1.1,0.4c1,7-3.9,14.6,2.9,21.2c1.1,1.1,1.2,3.5,1.5,5.4c0.9,5.6,1.7,11.1,2.6,17.2c10.4-5.3,20-2.6,29.3,1.1
					c9.6,3.9,18.9,8.8,28.6,12.7C693.3,170.4,699.3,171.4,705.1,173z"/>
			</g>
		</g>
		<g>
			<g>
				<path d="M979,155c0.3-56.7,46.1-101.9,102.9-101.6c55.9,0.3,101.5,46.6,101,102.6c-0.5,56.5-46.4,101.8-102.7,101.5
					C1024.3,257.2,978.7,211,979,155z M1127,155.4c0-25.6-20.6-46.1-46.2-46.1c-25.3,0-45.7,20.4-46,45.8
					c-0.2,25.3,20.6,46.4,46,46.5C1106.1,201.7,1126.9,180.8,1127,155.4z"/>
			</g>
		</g>
		<g>
			<g>
				<path d="M736.5,56.4c1.9-0.1,3.1-0.2,4.3-0.2c19.8,0,39.6,0.1,59.4-0.1c3.2,0,4.7,1,6,3.9c13.2,29.6,26.5,59.1,39.8,88.7
					c0.1,0.1,0.1,0.3,0.2,0.4c2.2,2.3,4.4,4.6,6.5,6.9c2.2-2.2,5.2-4.1,6.4-6.8c13.5-29.5,26.8-59,39.9-88.6c1.5-3.5,3.3-4.5,7-4.5
					c19,0.2,38,0.1,57,0.1c1.5,0,3.1,0,5.3,0c-0.9,2-1.5,3.4-2.2,4.8c-31.5,63-63.1,126-94.5,189.1c-1.7,3.4-3.6,4.8-7.5,4.7
					c-8.4-0.3-16.8-0.3-25.2,0c-3.2,0.1-4.7-1.1-6.1-3.9c-30.1-60.8-60.3-121.5-90.4-182.3C740.5,64.7,738.6,60.8,736.5,56.4z"/>
			</g>
		</g>
		<g>
			<g>
				<path d="M250.8,76.9c17.9,6.1,33,0,47.9-8.9c26.8-16,55.2-18.7,84.9-9.1c3.6,1.2,4.5,2.5,3.4,6.4c-4.8,15.8-9.3,31.8-13.9,47.9
					c-12.9-3.9-25.6-4.3-38.1,0c-13.2,4.5-23.7,12.1-27.3,26.5c-0.7,2.9-0.7,6-0.7,8.9c0,33.3,0,66.5,0,99.8c0,1.9,0,3.7,0,5.9
					c-18.8,0-37.3,0-56,0C250.8,195.2,250.8,136.2,250.8,76.9z"/>
			</g>
		</g>
		<g>
			<g>
				<path d="M463.2,269.7c9.4-0.9,18.8-3,28.1-2.4c18.6,1.2,37.1,3.5,55.5,6.2c20.2,3,40.4,6.4,60.9,5c9.8-0.7,19.6-2.6,29.4-4
					c-0.1-0.5-0.1-1-0.2-1.6c-2.8,0.3-5.7,0.5-8.5,0.8c-30.2,3.1-59.5-3.1-88.9-8.9c-17.9-3.5-35.8-7.1-54.1-6.2
					c-9.1,0.4-18.2,2-27.2,3.4c-2.9,0.4-5.1,0.6-7-2.1c-2.1-2.9-4.8-5.5-7-8.4c-5.3-6.9-3.8-13.6,4.3-16.8c5-2,10.6-3.2,16.1-3.6
					c28.1-2.4,55.5,1.8,82.8,7.9c20.5,4.6,41,9.3,61.7,12.6c27,4.3,53.9,2.3,80.4-4.8c0.4-0.1,0.9-0.2,1.4-0.3
					c-45.8,68.9-155.8,90.2-227.6,24.8C463.2,270.8,463.2,270.3,463.2,269.7z"/>
			</g>
		</g>
		<g>
			<g>
				<path d="M810.1,408.7c-3.6-5.4-6.9-10.3-10.1-15.1c-0.3,0-0.6,0.1-0.9,0.1c0,7.7,0,15.5,0,23.5c-3.3,0-5.9,0-8.7,0
					c0-13.1,0-26,0-39c7.4-2.1,9-1.5,12.7,4.5c2.2,3.6,4.5,7.2,7.1,11.4c2.4-3.8,4.8-6.9,6.4-10.4c2.7-5.9,6.8-7.7,13.3-5.8
					c0,12.8,0,25.8,0,39.2c-2.6,0-5.3,0-8.3,0c0-7.9,0-15.7,0-23.6c-0.3-0.1-0.7-0.3-1-0.4C817.2,398.3,813.9,403.2,810.1,408.7z"/>
			</g>
		</g>
		<g>
			<g>
				<path d="M536.5,378c6.2-1.7,10.5-0.4,13.2,5.7c1.5,3.5,4.1,6.6,6.5,10.5c2.4-3.9,4.9-7,6.5-10.6c2.6-6.2,7.1-7.3,13.2-5.7
					c0,13,0,26,0,39.3c-2.7,0-5.2,0-8.2,0c0-7.9,0-15.9,0-23.8c-0.3-0.1-0.7-0.2-1-0.4c-3.4,5-6.7,9.9-10.5,15.5
					c-3.6-5.3-7-10.3-10.4-15.2c-0.3,0.1-0.6,0.2-0.9,0.3c0,7.8,0,15.6,0,23.6c-3,0-5.5,0-8.3,0C536.5,404.3,536.5,391.3,536.5,378z
					"/>
			</g>
		</g>
		<g>
			<g>
				<path d="M881.7,409.6c0,2.9,0,5.1,0,7.6c-10.1,0-20.1,0-30.4,0c0-13.1,0-26,0-39.3c10,0,19.8,0,29.9,0c0,2.5,0,4.8,0,7.6
					c-6.9,0-13.6,0-20.7,0c0,2.8,0,5.1,0,7.9c5.9,0,11.8,0,18.1,0c0,2.7,0,5,0,7.9c-5.9,0-11.9,0-18.1,0c0,3,0,5.5,0,8.3
					C867.3,409.6,874.3,409.6,881.7,409.6z"/>
			</g>
		</g>
		<g>
			<g>
				<path d="M597.4,377.8c10,0,19.7,0,29.8,0c0,2.4,0,4.7,0,7.7c-6.8,0-13.6,0-20.7,0c0,3,0,5.3,0,8.1c6.1,0,12.1,0,18.2,0
					c0,2.7,0,4.9,0,7.7c-5.9,0-11.8,0-18.1,0c0,3,0,5.5,0,8.4c6.8,0,13.7,0,20.9,0c0,2.8,0,5,0,7.6c-10,0-19.9,0-30,0
					C597.4,404.2,597.4,391.3,597.4,377.8z"/>
			</g>
		</g>
		<g>
			<g>
				<path d="M708.9,417.4c-2.6,0-5.1,0-8.1,0c0-5,0-10,0-15.3c-5.6,0-10.8,0-16.4,0c0,5.1,0,10.1,0,15.3c-3.1,0-5.8,0-8.7,0
					c0-13.2,0-26.2,0-39.6c2.8,0,5.4,0,8.5,0c0,4.9,0,9.9,0,15.3c5.6,0,10.7,0,16.3,0c0-5.1,0-10.1,0-15.3c3,0,5.5,0,8.4,0
					C708.9,390.9,708.9,404,708.9,417.4z"/>
			</g>
		</g>
		<g>
			<g>
				<path d="M357,401.5c-6.3,0-12.1,0-18.3,0c0,2.7,0,5.2,0,8.2c6.8,0,13.9,0,21.1,0c0,2.8,0,5.1,0,7.7c-10,0-19.8,0-30,0
					c0-13.3,0-26.3,0-39.5c10,0,19.7,0,29.8,0c0,2.5,0,4.8,0,7.6c-6.9,0-13.8,0-21,0c0,2.9,0,5.2,0,8c5.9,0,12,0,18.3,0
					C357,396.3,357,398.6,357,401.5z"/>
			</g>
		</g>
		<g>
			<g>
				<path d="M379.6,377.7c3,0,5.5,0,8.7,0c0,5.3,0,10.4,0,15.6c0,5.2,0,10.4,0,16.1c6.6,0,12.8,0,19.5,0c0,2.8,0,5.1,0,7.8
					c-9.2,0-18.6,0-28.2,0C379.6,404.2,379.6,391.1,379.6,377.7z"/>
			</g>
		</g>
	</g>
</g>
</svg>
