<?xml version="1.0" encoding="UTF-8"?>
<svg width="880px" height="296px" viewBox="0 0 880 296" version="1.1" xmlns="http://www.w3.org/2000/svg" xmlns:xlink="http://www.w3.org/1999/xlink">
    <!-- Generator: Sketch 52.1 (67048) - http://www.bohemiancoding.com/sketch -->
    <title>SpookyLous</title>
    <desc>Created with Sketch.</desc>
    <g id="Page-1" stroke="none" stroke-width="1" fill="none" fill-rule="evenodd">
        <g id="SpookyLous">
            <rect id="Rectangle" fill="#000000" x="0" y="0" width="880" height="296"></rect>
            <path d="M816.86953,208.067298 L845,208.067298 L845,221.329011 L821.002614,221.329011 L821.002614,227.486235 L844.447429,227.486235 L844.447429,240.747949 L821.002614,240.747949 L821.002614,247.457744 L845,247.457744 L845,260.719457 L805.056982,260.719457 L805.056982,208.067298 L811.30096,208.067298 C811.073381,205.395864 810.872276,203.797892 810.697641,203.273339 C810.249616,201.735356 809.833599,198.387091 809.449577,193.228441 C809.065556,188.069792 807.977511,185.490506 806.185411,185.490506 C805.545375,185.490506 804.921349,185.65071 804.313315,185.971123 C803.705281,186.291536 803.257263,186.868271 802.969247,187.701345 C802.681231,188.534419 802.537225,189.463602 802.537225,190.488924 C802.537225,191.257915 802.633229,192.411385 802.82524,193.949367 C803.01725,195.487349 803.113254,196.544696 803.113254,197.12144 C803.113254,198.979835 802.377224,199.748815 800.905142,199.428402 C799.433059,199.043906 798.47302,198.40309 798.024995,197.505934 C797.57697,196.608777 797.352961,195.263063 797.352961,193.46875 L797.352961,191.690467 C797.352961,191.081682 797.384962,190.456886 797.448966,189.81606 C797.448966,188.470326 797.32096,187.172672 797.064946,185.923062 C796.808932,184.673451 795.944896,183.568043 794.472814,182.606804 C792.232689,181.196987 790.952636,180.315864 790.632618,179.96341 C790.3126,179.610956 789.640573,178.345343 788.616515,176.166535 C787.912476,174.756718 787.016439,174.05182 785.928378,174.05182 C785.032328,174.05182 784.328299,174.948963 783.816271,176.743275 C783.304242,178.537588 782.600213,179.434731 781.704163,179.434731 C780.744109,179.434731 779.912075,178.922078 779.208036,177.896756 L777.479948,174.820807 C776.26388,172.898329 775.495848,170.719553 775.17583,168.284415 C774.98382,165.20845 774.791812,162.773348 774.599801,160.979035 L773.447742,152.712421 C773.447742,151.238521 773.767755,149.764643 774.407791,148.290744 C777.031938,142.266979 781.416118,139.255142 787.560462,139.255142 C788.136494,139.255142 788.936527,139.319224 789.960584,139.447389 C792.904749,139.895967 795.016835,142.427192 796.296907,147.041139 C797.832993,152.424078 799.625066,155.788364 801.673181,157.134098 L805.897396,159.825554 C807.497486,160.72271 808.937545,161.171282 810.217616,161.171282 C810.537634,161.171282 811.017654,161.1072 811.65769,160.979035 C814.281837,160.466374 816.201915,158.864333 817.417983,156.172864 C818.442041,153.994056 818.954062,151.238545 818.954062,147.90625 C818.954062,145.214781 817.706011,142.715597 815.209871,140.408623 C811.433659,136.948163 809.225569,134.705306 808.585533,133.679984 L801.289161,120.222706 C800.713129,119.389632 797.929015,116.666162 792.936736,112.052215 C790.952625,110.19382 789.38456,108.175248 788.232496,105.99644 C787.848474,105.227449 787.144446,102.279693 786.120388,97.1530854 C785.416349,93.6926251 784.200299,91.9624209 782.472202,91.9624209 C782.216188,91.9624209 781.704167,92.0745638 780.936124,92.2988528 C780.168081,92.5231419 779.384049,93.8207951 778.584004,96.1918513 C777.783959,98.5629074 777.031928,99.7484177 776.327889,99.7484177 C776.135878,99.7484177 775.879868,99.6522953 775.55985,99.4600475 C774.6638,98.9473867 774.087776,98.1463662 773.831762,97.056962 C773.575748,95.9675578 773.38374,95.0383741 773.255733,94.2693829 C772.935715,92.6673179 772.775708,91.3856852 772.775708,90.4244462 C772.775708,88.9505464 773.07972,86.819832 773.687755,84.0322389 C774.295789,81.2446459 774.599801,79.0818906 774.599801,77.5439082 C774.599801,75.4291825 774.695805,72.673672 774.887816,69.2772943 C775.079826,65.8809166 775.17583,63.1254061 775.17583,61.0106804 C775.17583,58.9600372 776.071867,57.1176901 777.863967,55.4835839 C779.656068,53.8494776 781.448141,52.2314162 783.240241,50.6293513 C785.672378,47.7456343 788.296485,45.5348178 791.112643,43.9968354 C792.008693,43.4841747 795.272827,42.1064194 800.905142,39.8635285 C803.337278,38.6459591 805.065349,37.8128978 806.089406,37.3643196 C807.817503,36.5312458 809.513572,36.1147152 811.177665,36.1147152 C811.689694,36.1787978 812.105711,36.2108386 812.425729,36.2108386 C819.274112,36.787582 825.162353,39.3828883 830.090629,43.9968354 C834.314866,47.9699566 838.027018,53.6411815 841.227197,61.0106804 C841.867233,62.4845802 842.363253,64.0385599 842.715273,65.6726661 C843.067292,67.3067724 843.2433,68.8287113 843.2433,70.2385285 C843.2433,71.7124283 843.083293,73.4906937 842.763275,75.5733782 C842.443257,77.6560626 842.187247,79.3382056 841.995236,80.6198576 C841.803225,81.9015096 841.67522,84.9453874 841.611216,89.7515823 C841.547213,94.5577772 840.779181,96.9608386 839.307099,96.9608386 C838.923078,96.9608386 838.603064,96.896757 838.34705,96.7685918 C837.194986,96.255931 836.426954,94.7500125 836.042933,92.2507911 C835.658911,89.7515698 835.466903,88.4378962 835.466903,88.309731 C835.210889,84.0802795 834.98688,80.8441568 834.794869,78.6012658 C834.602858,76.3583749 833.642819,75.2369462 831.914722,75.2369462 C831.274686,75.2369462 830.602659,75.3651095 829.898619,75.6214399 C828.362534,76.1341007 827.370493,78.1526723 826.922468,81.6772152 C826.474443,85.2017581 825.802415,86.9640032 824.906365,86.9640032 C824.522344,86.9640032 824.20233,86.8999215 823.946316,86.7717563 C822.474234,86.1309303 821.722203,84.6410323 821.690201,82.3020174 C821.658199,79.9630025 821.514193,78.376982 821.258179,77.5439082 C820.682147,74.6601913 820.26613,72.6095789 820.010115,71.3920095 C819.498087,69.2132011 818.378041,67.6752418 816.649944,66.7780854 C816.009908,67.5470766 815.369882,68.2840155 814.729846,68.9889241 C814.665843,70.9754846 814.60184,72.9299746 814.537837,74.8524525 C814.345826,77.0312609 813.641797,77.9284038 812.425729,77.5439082 C811.145657,77.09533 810.185618,76.3263504 809.545582,75.2369462 C808.905546,74.147542 808.585533,72.8659093 808.585533,71.3920095 C808.52153,70.9434313 808.489528,70.5909823 808.489528,70.3346519 C808.489528,69.6297433 808.52153,68.8928045 808.585533,68.1238133 C808.649537,67.3548221 808.681538,66.9382915 808.681538,66.8742089 C808.681538,66.1052177 808.569533,65.4483809 808.345521,64.9036788 C808.121508,64.3589767 807.737493,63.8783644 807.193462,63.4618275 C806.649432,63.0452906 806.217414,62.8370253 805.897396,62.8370253 C804.937342,62.8370253 804.089308,64.2788622 803.353267,67.1625791 C802.617225,70.0462961 802.185208,71.648337 802.0572,71.96875 C801.481168,73.891228 801.193156,75.7175546 801.193156,77.4477848 C801.193156,81.7413189 803.049232,86.2590744 806.76144,91.0011867 C807.977508,92.5391691 810.249601,95.1024346 813.577788,98.6910601 C814.601845,99.7804643 817.513964,101.702913 822.314233,104.458465 C824.490355,105.676035 826.186424,107.085831 827.402492,108.687896 C828.042528,109.585052 828.650553,110.67444 829.226585,111.956092 C830.442653,114.775726 831.370691,116.634094 832.010727,117.53125 C832.458752,118.172076 834.570839,119.870239 838.34705,122.625791 C839.755129,123.651113 840.843173,124.900705 841.611216,126.374604 C842.123245,127.335843 842.459259,128.281048 842.619268,129.210245 C842.779277,130.139443 842.85928,131.244851 842.85928,132.526503 L842.85928,137.044304 C842.85928,137.749212 842.955284,138.550233 843.147295,139.447389 C843.467313,141.305785 843.803326,143.164152 844.155346,145.022547 C844.507366,146.880943 844.683373,148.482984 844.683373,149.828718 C844.683373,151.174453 844.555368,152.456086 844.299353,153.673655 C844.043339,154.891224 843.531318,156.30102 842.763275,157.903085 C840.907171,162.004372 839.755124,166.329882 839.307099,170.879747 C838.987081,176.519016 838.667068,181.100853 838.34705,184.625396 C838.283046,185.009891 838.251045,185.650708 838.251045,186.547864 C838.251045,187.060525 838.283046,187.941647 838.34705,189.191258 C838.411054,190.440869 838.443055,191.386073 838.443055,192.026899 C838.443055,193.436716 838.299049,194.542124 838.011033,195.343157 C837.723017,196.144189 837.162994,196.544699 836.330947,196.544699 C836.138937,196.544699 835.850925,196.480618 835.466903,196.352453 C834.122828,195.967957 833.290794,194.542141 832.970776,192.07496 C832.650758,189.60778 832.330745,188.085841 832.010727,187.509098 C831.306688,185.650703 830.794667,184.304988 830.474649,183.471915 C829.898617,182.062097 829.00258,181.229036 827.786512,180.972706 C826.698451,180.780458 825.738412,180.972703 824.906365,181.549446 C824.778358,181.613529 823.562308,183.087406 821.258179,185.971123 C820.170118,187.316858 819.370085,188.918899 818.858057,190.777294 C818.346028,192.63569 817.866008,194.429976 817.417983,196.160206 C816.969958,197.890436 816.745949,200.069212 816.745949,202.696598 C816.745949,204.298663 816.77795,205.868663 816.841954,207.406646 C816.851146,207.627524 816.860338,207.847742 816.86953,208.067298 Z M689.145272,208.067298 L692.676036,208.067298 L692.676036,221.960521 L678.624935,221.960521 L678.624935,260.719457 L662.679303,260.719457 L662.679303,221.960521 L648.549263,221.960521 L648.549263,208.067298 L679.633893,208.067298 C679.655968,206.195528 679.782811,204.245105 680.014425,202.215981 C680.65446,196.640795 680.974473,193.468754 680.974473,192.699763 C680.974473,191.033615 680.89447,189.67188 680.734461,188.614517 C680.574452,187.557155 680.206437,186.163379 679.630405,184.433149 C678.670351,181.74168 677.038284,179.178414 674.734155,176.743275 C668.973833,170.719511 665.677698,166.938694 664.845651,165.400712 C662.989548,161.812086 661.58149,158.223515 660.621436,154.634889 C659.9814,152.19975 658.957358,145.983832 657.54928,135.986946 C657.101254,132.590568 656.74924,129.322405 656.493226,126.182358 C656.237211,123.04231 656.109206,120.158637 656.109206,117.53125 C656.109206,114.58345 656.221211,111.683756 656.445223,108.832081 C656.669236,105.980405 657.037251,102.343772 657.54928,97.9220728 C658.765348,91.3215651 659.981397,84.6891156 661.197465,78.0245253 C661.45348,75.2689736 661.581485,72.5775448 661.581485,69.9501582 C661.581485,68.3480933 661.517482,65.6566645 661.389475,61.8757911 C661.261468,58.0949178 661.197465,55.7879788 661.197465,54.9549051 C661.197465,53.5450879 660.973456,52.4236592 660.525431,51.5905854 C658.989345,49.9244379 657.741294,48.4505602 656.78124,47.1689082 C656.141205,46.2717518 655.821191,45.3105273 655.821191,44.2852057 C655.821191,42.2986451 656.893235,40.3601756 659.037355,38.4697389 C661.181475,36.5793023 663.50157,35.4418532 665.99771,35.0573576 C668.173832,34.6087794 670.221916,34.3844937 672.142023,34.3844937 C674.190138,34.3844937 676.942251,34.8010243 680.398444,35.6340981 C682.638569,36.1467589 683.902621,38.1012488 684.190637,41.4976266 C684.478654,44.8940043 684.782666,47.07278 685.102684,48.034019 C686.510763,52.2634705 687.518804,56.8132668 688.126838,61.6835443 C688.734872,66.5538218 689.038884,71.6803528 689.038884,77.0632911 C689.038884,84.2405422 688.494862,92.3789102 687.406801,101.478639 C687.150787,103.529282 686.126745,110.962752 684.334645,123.779272 C683.18258,131.981845 682.606557,137.749192 682.606557,141.081487 C682.606557,143.580709 682.782564,145.551219 683.134584,146.993078 C683.486603,148.434936 684.14263,149.572385 685.102684,150.405459 C685.614713,150.854037 686.958768,152.327915 689.134889,154.827136 C690.478965,156.429201 691.967026,157.646752 693.599117,158.479826 C695.231208,159.3129 696.655267,159.72943 697.871335,159.72943 C701.071514,159.72943 703.311606,156.877798 704.591677,151.174446 C705.487727,147.07316 705.935746,140.793159 705.935746,132.334256 C705.935746,130.347696 705.903744,127.544124 705.839741,123.923457 C705.775737,120.30279 705.743736,117.787586 705.743736,116.377769 C705.743736,112.660978 705.455724,107.950978 704.879692,102.247627 C704.30366,96.5442753 704.015648,91.8342749 704.015648,88.1174842 C704.015648,85.5541802 704.30366,82.2539759 704.879692,78.2167722 C705.455724,74.1795684 705.743736,70.8473233 705.743736,68.2199367 C705.743736,65.9770457 705.10371,61.9399026 703.823638,56.1083861 C703.183602,53.2246691 702.863589,50.6293628 702.863589,48.3223892 C702.863589,47.5533981 702.687582,46.4319694 702.335562,44.9580696 C701.983542,43.4841698 701.807535,42.5549861 701.807535,42.1704905 C701.807535,41.2733341 702.063546,40.4402728 702.575574,39.6712816 C703.727639,38.1332993 705.151697,37.2041155 706.847792,36.8837025 C708.543887,36.5632895 710.031948,36.4030854 711.31202,36.4030854 C712.848106,36.4030854 714.464172,36.5793099 716.160267,36.9317642 C717.856362,37.2842185 719.568432,37.6206471 721.296529,37.9410601 C721.808557,38.0692253 722.544587,38.2454498 723.504641,38.4697389 C724.464695,38.694028 725.232726,38.8061709 725.808759,38.8061709 C726.448794,38.8061709 726.928814,38.7581097 727.248832,38.6619858 C727.56885,38.5658619 728.096872,38.3255557 728.832913,37.9410601 C729.568954,37.5565645 730.224981,37.3643196 730.801013,37.3643196 C732.977135,37.3643196 734.32119,40.0557484 734.833219,45.4386867 C735.025229,47.4893299 735.121233,50.3089219 735.121233,53.8975475 L735.121233,57.5502373 C735.121233,59.7290457 734.577211,61.9078214 733.48915,64.0866297 C730.544985,69.9822288 728.976921,73.3625352 728.78491,74.2276503 C728.5929,75.0927654 728.464894,75.9418471 728.400891,76.7749209 C728.336887,77.6079947 728.304886,78.5051376 728.304886,79.4663766 C728.304886,80.7480286 728.432891,82.6063961 728.688905,85.0415348 C728.94492,87.4766736 729.072925,89.3991227 729.072925,90.8089399 C729.072925,92.0905919 728.96092,93.5484491 728.736908,95.1825554 C728.512895,96.8166617 728.400891,98.5628863 728.400891,100.421282 C728.400891,102.728255 729.072918,107.406215 730.416993,114.455301 C731.057029,117.787596 731.377042,120.607188 731.377042,122.914161 C731.377042,125.157052 731.089031,127.592155 730.512998,130.219541 C730.256984,131.565276 730.128979,132.943031 730.128979,134.352848 C730.128979,135.185922 730.192981,136.579698 730.320989,138.534217 C730.448996,140.488736 730.512998,141.658226 730.512998,142.042722 L730.512998,148.386867 C730.512998,152.103658 730.352992,155.067434 730.032974,157.278283 C729.712956,159.489133 728.912923,162.196582 727.632852,165.400712 C727.056819,166.874612 722.512633,171.136041 714.000157,178.185127 C710.799978,180.812513 709.199912,183.856391 709.199912,187.316851 C709.199912,188.342173 709.599928,189.655846 710.399973,191.257911 C711.200018,192.859976 711.600034,193.981405 711.600034,194.622231 C711.600034,195.263057 711.376025,195.903873 710.928,196.544699 C709.519921,198.27493 707.855853,199.140032 705.935746,199.140032 C704.847685,199.140032 703.727639,198.851664 702.575574,198.274921 C701.807531,197.954508 701.423516,197.313692 701.423516,196.352453 C701.423516,195.711627 701.903535,194.141626 702.863589,191.642405 C703.375618,190.29667 703.631628,189.335446 703.631628,188.758703 C703.631628,187.861546 703.231612,187.156648 702.431567,186.643987 C701.631522,186.131327 701.167503,185.842959 701.039496,185.778877 C700.463464,185.458464 699.919442,185.298259 699.407413,185.298259 C699.023391,185.298259 698.639376,185.394382 698.255354,185.58663 C697.871333,185.778878 697.56732,186.163367 697.343308,186.740111 C697.119295,187.316854 696.799282,187.733385 696.383259,187.989715 C695.967236,188.246046 695.567219,188.374209 695.183198,188.374209 C694.351151,188.374209 693.279107,187.781454 691.967034,186.595926 C690.65496,185.410398 689.742923,184.817642 689.230894,184.817642 C688.782869,184.817642 688.334851,185.073969 687.886826,185.58663 C687.182786,186.547869 686.830772,187.605216 686.830772,188.758703 C686.830772,189.271363 687.054781,190.552996 687.502806,192.603639 C687.758821,193.757126 687.886826,194.68631 687.886826,195.391218 C687.886826,196.736953 688.110835,198.659402 688.55886,201.158623 C689.006885,203.657845 689.230894,205.452131 689.230894,206.541535 C689.230894,207.087494 689.202354,207.596081 689.145272,208.067298 Z M435.877755,208.067298 L447.538653,208.067298 L465.852447,234.590725 L465.852447,208.067298 L481.798079,208.067298 L481.798079,260.719457 L466.483957,260.719457 L447.06502,232.459378 L447.06502,260.719457 L431.119388,260.719457 L431.119388,212.092075 C429.871313,211.991558 429.013451,211.583232 428.54578,210.867089 C428.00175,210.034015 427.729739,208.784423 427.729739,207.118275 C427.729739,206.285202 427.777741,205.099691 427.873746,203.561709 C427.969751,202.023726 428.017753,201.222706 428.017753,201.158623 C428.017753,199.876971 428.337767,197.537992 428.977802,194.141614 C429.29782,192.475466 429.457827,190.969548 429.457827,189.623813 C429.457827,186.804179 429.121813,184.945811 428.449775,184.048655 C427.777738,183.151499 426.769697,182.702927 425.425621,182.702927 C423.697525,182.702927 422.577479,184.625376 422.06545,188.470332 C421.553421,192.315288 420.561381,194.237737 419.089298,194.237737 C416.273141,194.237737 414.609073,192.443451 414.097044,188.854826 L413.329005,178.665744 C412.688969,175.269366 412.368956,172.097325 412.368956,169.149525 C412.368956,167.419295 412.46496,165.368683 412.656971,162.997627 C413.104996,157.486523 413.329005,153.673666 413.329005,151.55894 C413.329005,143.164119 413.008992,136.243303 412.368956,130.796282 C411.72892,125.349261 410.320862,119.197424 408.144741,112.340585 C407.312694,109.713199 404.464577,103.529321 399.600305,93.7887658 C396.272119,87.1241755 394.608051,80.7160118 394.608051,74.5640823 C394.608051,70.7832089 393.712014,66.714025 391.919914,62.3564082 C387.951692,52.6799358 385.96761,46.4319761 385.96761,43.6123418 C385.96761,42.3306898 386.079615,40.968955 386.303627,39.5270965 C386.52764,38.085238 387.119664,37.1720747 388.079718,36.7875791 C389.039772,36.4030835 390.543833,36.2108386 392.591948,36.2108386 C393.616005,36.2108386 394.96006,36.1787978 396.624153,36.1147152 C398.288247,36.0506326 399.504296,36.0185918 400.272339,36.0185918 C401.488407,36.0185918 402.672456,36.0826734 403.82452,36.2108386 C404.976585,36.3390038 406.224636,36.6273712 407.568711,37.0759494 C410.640883,38.1012709 412.944978,40.1839242 414.481063,43.3239715 L418.513269,52.9363133 C419.537326,54.8587913 420.193353,59.0561385 420.481369,65.528481 C420.769385,72.0008235 421.745425,75.2369462 423.409519,75.2369462 C423.921547,75.2369462 424.593575,75.0126605 425.425621,74.5640823 C427.217722,73.5387607 428.433771,71.7444748 429.073807,69.1811709 C430.097865,65.336215 430.801893,62.9972352 431.185915,62.1641614 L436.370179,52.9363133 C436.754201,51.7828265 436.946208,50.629357 436.946208,49.4758703 C436.946208,48.5787139 436.786202,47.2009587 436.466184,45.3425633 C436.146166,43.4841679 435.98616,42.1704944 435.98616,41.4015032 C435.98616,40.2480164 436.162167,39.3508735 436.514186,38.7100475 C436.866206,38.0692215 437.586236,37.5245276 438.674297,37.0759494 C440.722411,36.2428756 442.930502,35.5219572 445.298634,34.9131725 C447.666767,34.3043878 449.778853,34 451.634957,34 C453.875083,34 455.779161,34.4485715 457.347248,35.3457278 C458.915336,36.2428842 459.98738,37.6847211 460.563412,39.6712816 C460.947434,41.1451814 461.139442,42.5229366 461.139442,43.8045886 C461.139442,45.662984 460.819428,47.6815556 460.179393,49.8603639 C458.643307,55.115137 457.875275,58.479423 457.875275,59.9533228 L457.875275,61.3471123 C457.875275,61.6995666 458.035282,62.5326279 458.3553,63.8463212 C458.675318,65.1600145 458.899327,66.5377697 459.027334,67.9796282 C459.155341,69.4214866 459.219344,70.9434255 459.219344,72.5454905 C459.219344,73.6989773 459.155341,75.7335693 459.027334,78.6493275 C458.899327,81.5650858 458.835324,83.375392 458.835324,84.0803006 C458.899328,84.977457 458.94733,85.7784775 458.979331,86.4833861 C459.011333,87.1882947 459.027334,87.829111 459.027334,88.4058544 C459.027334,91.353654 458.787324,93.9169195 458.307297,96.0957278 C457.82727,98.2745362 457.043238,99.3639241 455.955177,99.3639241 C455.507152,99.3639241 454.931129,99.0755567 454.227089,98.4988133 C453.203032,97.5375743 452.691011,96.3200232 452.691011,94.8461234 C452.691011,94.1412148 452.883019,92.9557045 453.26704,91.289557 C453.651062,89.6234094 453.84307,88.3738175 453.84307,87.5407437 C453.84307,86.1309265 453.395051,84.977457 452.499001,84.0803006 C451.602951,83.1831442 450.802918,82.7345728 450.098879,82.7345728 C448.178771,82.7345728 447.026724,86.419267 446.642703,93.7887658 C446.514696,96.2239046 446.450693,99.5241089 446.450693,103.689478 C446.450693,106.380947 446.514696,108.655845 446.642703,110.514241 C447.090728,116.986583 447.314737,120.671277 447.314737,121.568434 C447.18673,123.170499 447.058725,124.740499 446.930717,126.278481 C446.610699,127.944629 445.778665,128.873812 444.43459,129.06606 C443.346529,129.258308 442.450493,128.313104 441.746453,126.230419 C441.042414,124.147735 440.21038,122.978245 439.250326,122.721915 C437.906251,122.401502 437.010214,122.753951 436.562189,123.779272 C436.114164,124.804594 435.890155,126.406635 435.890155,128.585443 L435.890155,131.03659 C435.890155,131.837623 435.922156,132.622623 435.98616,133.391614 L435.98616,134.737342 C435.858152,135.314085 435.79415,135.730616 435.79415,135.986946 C435.154114,140.857224 434.834101,145.471102 434.834101,149.828718 C434.834101,152.58427 434.962106,155.980597 435.21812,160.017801 C435.794153,169.053447 436.082164,175.269366 436.082164,178.665744 C436.082164,181.164965 435.986161,183.503945 435.79415,185.682753 C435.218118,192.155096 434.930106,195.615504 434.930106,196.064082 L434.930106,198.034612 C434.930106,198.643397 435.090112,200.069213 435.41013,202.312104 C435.538137,203.209261 435.650142,204.170485 435.746147,205.195807 C435.842153,206.221129 435.890155,206.990108 435.890155,207.502769 C435.890155,207.698188 435.886021,207.886364 435.877755,208.067298 Z M79.3160082,211.72658 C83.5443947,214.692726 86.2359289,218.711085 87.8889758,222.513093 L74.1536298,228.907133 C72.8116707,224.802317 68.7068547,221.250073 63.5758347,221.250073 C56.3134678,221.250073 51.1824478,227.091542 51.1824478,234.432847 C51.1824478,241.774153 56.3134678,247.615622 63.5758347,247.615622 C68.7068547,247.615622 72.8116707,244.063377 74.1536298,239.958561 L87.8889758,246.273663 C84.8103637,253.299213 77.7848132,261.666723 63.5758347,261.666723 C47.4723256,261.666723 35,250.615295 35,234.432847 C35,218.171461 47.4723256,207.198972 63.5758347,207.198972 C67.4521795,207.198972 70.7880223,207.798224 73.6538848,208.817219 C73.4005433,205.693199 73.1786736,203.845257 72.9882692,203.273339 C72.5402441,201.735356 72.1242271,198.387091 71.7402056,193.228441 C71.3561841,188.069792 70.2681395,185.490506 68.4760392,185.490506 C67.8360034,185.490506 67.2119778,185.65071 66.6039438,185.971123 C65.9959098,186.291536 65.5478914,186.868271 65.2598753,187.701345 C64.9718592,188.534419 64.8278533,189.463602 64.8278533,190.488924 C64.8278533,191.257915 64.9238572,192.411385 65.1158679,193.949367 C65.3078787,195.487349 65.4038826,196.544696 65.4038826,197.12144 C65.4038826,198.979835 64.6678525,199.748815 63.1957701,199.428402 C61.7236877,199.043906 60.7636484,198.40309 60.3156233,197.505934 C59.8675982,196.608777 59.643589,195.263063 59.643589,193.46875 L59.643589,191.690467 C59.643589,191.081682 59.6755903,190.456886 59.7395939,189.81606 C59.7395939,188.470326 59.6115887,187.172672 59.3555744,185.923062 C59.09956,184.673451 58.2355246,183.568043 56.7634422,182.606804 C54.5233169,181.196987 53.2432644,180.315864 52.9232465,179.96341 C52.6032286,179.610956 51.9312011,178.345343 50.9071438,176.166535 C50.2031044,174.756718 49.3070676,174.05182 48.2190068,174.05182 C47.3229566,174.05182 46.6189278,174.948963 46.1068991,176.743275 C45.5948704,178.537588 44.8908416,179.434731 43.9947915,179.434731 C43.0347377,179.434731 42.2027036,178.922078 41.4986642,177.896756 L39.7705762,174.820807 C38.5545081,172.898329 37.7864766,170.719553 37.4664587,168.284415 C37.274448,165.20845 37.0824401,162.773348 36.8904294,160.979035 L35.7383706,152.712421 C35.7383706,151.238521 36.0583838,149.764643 36.6984196,148.290744 C39.3225664,142.266979 43.7067461,139.255142 49.8510899,139.255142 C50.4271222,139.255142 51.227155,139.319224 52.2512123,139.447389 C55.195377,139.895967 57.3074636,142.427192 58.5875352,147.041139 C60.1236212,152.424078 61.9156946,155.788364 63.9638092,157.134098 L68.1880245,159.825554 C69.7881141,160.72271 71.2281731,161.171282 72.5082447,161.171282 C72.8282626,161.171282 73.3082823,161.1072 73.9483181,160.979035 C76.572465,160.466374 78.4925436,158.864333 79.7086117,156.172864 C80.732669,153.994056 81.24469,151.238545 81.24469,147.90625 C81.24469,145.214781 79.9966389,142.715597 77.5004992,140.408623 C73.7242878,136.948163 71.5161974,134.705306 70.8761615,133.679984 L63.5797897,120.222706 C63.0037574,119.389632 60.2196434,116.666162 55.227364,112.052215 C53.2432529,110.19382 51.6751887,108.175248 50.5231242,105.99644 C50.1391027,105.227449 49.4350739,102.279693 48.4110165,97.1530854 C47.7069771,93.6926251 46.4909273,91.9624209 44.7628306,91.9624209 C44.5068163,91.9624209 43.9947953,92.0745638 43.2267523,92.2988528 C42.4587093,92.5231419 41.6746772,93.8207951 40.8746324,96.1918513 C40.0745876,98.5629074 39.3225568,99.7484177 38.6185174,99.7484177 C38.4265067,99.7484177 38.1704962,99.6522953 37.8504783,99.4600475 C36.9544281,98.9473867 36.3784045,98.1463662 36.1223902,97.056962 C35.8663759,95.9675578 35.674368,95.0383741 35.5463609,94.2693829 C35.2263429,92.6673179 35.0663364,91.3856852 35.0663364,90.4244462 C35.0663364,88.9505464 35.3703488,86.819832 35.9783829,84.0322389 C36.5864169,81.2446459 36.8904294,79.0818906 36.8904294,77.5439082 C36.8904294,75.4291825 36.9864333,72.673672 37.178444,69.2772943 C37.3704548,65.8809166 37.4664587,63.1254061 37.4664587,61.0106804 C37.4664587,58.9600372 38.3624954,57.1176901 40.1545957,55.4835839 C41.946696,53.8494776 43.7387694,52.2314162 45.5308697,50.6293513 C47.9630059,47.7456343 50.5871134,45.5348178 53.403271,43.9968354 C54.2993211,43.4841747 57.5634549,42.1064194 63.1957701,39.8635285 C65.6279062,38.6459591 67.355977,37.8128978 68.3800343,37.3643196 C70.108131,36.5312458 71.8042005,36.1147152 73.4682937,36.1147152 C73.9803223,36.1787978 74.3963394,36.2108386 74.7163573,36.2108386 C81.5647406,36.787582 87.4529818,39.3828883 92.3812576,43.9968354 C96.605494,47.9699566 100.317646,53.6411815 103.517825,61.0106804 C104.157861,62.4845802 104.653881,64.0385599 105.005901,65.6726661 C105.357921,67.3067724 105.533928,68.8287113 105.533928,70.2385285 C105.533928,71.7124283 105.373921,73.4906937 105.053904,75.5733782 C104.733886,77.6560626 104.477875,79.3382056 104.285864,80.6198576 C104.093854,81.9015096 103.965848,84.9453874 103.901845,89.7515823 C103.837841,94.5577772 103.06981,96.9608386 101.597727,96.9608386 C101.213706,96.9608386 100.893693,96.896757 100.637678,96.7685918 C99.4856139,96.255931 98.7175825,94.7500125 98.333561,92.2507911 C97.9495395,89.7515698 97.7575316,88.4378962 97.7575316,88.309731 C97.5015173,84.0802795 97.2775081,80.8441568 97.0854974,78.6012658 C96.8934866,76.3583749 95.9334473,75.2369462 94.2053506,75.2369462 C93.5653148,75.2369462 92.8932872,75.3651095 92.1892478,75.6214399 C90.6531618,76.1341007 89.6611212,78.1526723 89.2130961,81.6772152 C88.7650711,85.2017581 88.0930435,86.9640032 87.1969934,86.9640032 C86.8129719,86.9640032 86.4929588,86.8999215 86.2369444,86.7717563 C84.7648621,86.1309303 84.0128312,84.6410323 83.9808295,82.3020174 C83.9488277,79.9630025 83.8048218,78.376982 83.5488074,77.5439082 C82.9727752,74.6601913 82.5567582,72.6095789 82.3007438,71.3920095 C81.7887152,69.2132011 80.6686693,67.6752418 78.9405726,66.7780854 C78.3005367,67.5470766 77.6605105,68.2840155 77.0204747,68.9889241 C76.9564711,70.9754846 76.8924685,72.9299746 76.8284649,74.8524525 C76.6364542,77.0312609 75.9324253,77.9284038 74.7163573,77.5439082 C73.4362856,77.09533 72.4762463,76.3263504 71.8362105,75.2369462 C71.1961746,74.147542 70.8761615,72.8659093 70.8761615,71.3920095 C70.812158,70.9434313 70.7801566,70.5909823 70.7801566,70.3346519 C70.7801566,69.6297433 70.812158,68.8928045 70.8761615,68.1238133 C70.9401651,67.3548221 70.9721664,66.9382915 70.9721664,66.8742089 C70.9721664,66.1052177 70.8601618,65.4483809 70.6361493,64.9036788 C70.4121368,64.3589767 70.028121,63.8783644 69.4840906,63.4618275 C68.9400601,63.0452906 68.5080424,62.8370253 68.1880245,62.8370253 C67.2279708,62.8370253 66.3799361,64.2788622 65.6438949,67.1625791 C64.9078537,70.0462961 64.475836,71.648337 64.3478288,71.96875 C63.7717966,73.891228 63.4837848,75.7175546 63.4837848,77.4477848 C63.4837848,81.7413189 65.3398608,86.2590744 69.0520686,91.0011867 C70.2681366,92.5391691 72.5402297,95.1024346 75.868416,98.6910601 C76.8924733,99.7804643 79.8045926,101.702913 84.6048613,104.458465 C86.7809831,105.676035 88.4770525,107.085831 89.6931206,108.687896 C90.3331564,109.585052 90.9411813,110.67444 91.5172136,111.956092 C92.7332816,114.775726 93.6613196,116.634094 94.3013555,117.53125 C94.7493805,118.172076 96.8614671,119.870239 100.637678,122.625791 C102.045757,123.651113 103.133802,124.900705 103.901845,126.374604 C104.413873,127.335843 104.749887,128.281048 104.909896,129.210245 C105.069905,130.139443 105.149908,131.244851 105.149908,132.526503 L105.149908,137.044304 C105.149908,137.749212 105.245912,138.550233 105.437923,139.447389 C105.757941,141.305785 106.093955,143.164152 106.445974,145.022547 C106.797994,146.880943 106.974001,148.482984 106.974001,149.828718 C106.974001,151.174453 106.845996,152.456086 106.589982,153.673655 C106.333967,154.891224 105.821946,156.30102 105.053904,157.903085 C103.1978,162.004372 102.045752,166.329882 101.597727,170.879747 C101.277709,176.519016 100.957696,181.100853 100.637678,184.625396 C100.573675,185.009891 100.541674,185.650708 100.541674,186.547864 C100.541674,187.060525 100.573675,187.941647 100.637678,189.191258 C100.701682,190.440869 100.733683,191.386073 100.733683,192.026899 C100.733683,193.436716 100.589677,194.542124 100.301661,195.343157 C100.013645,196.144189 99.4536222,196.544699 98.6215757,196.544699 C98.4295649,196.544699 98.1415531,196.480618 97.7575316,196.352453 C96.4134564,195.967957 95.5814223,194.542141 95.2614044,192.07496 C94.9413865,189.60778 94.6213734,188.085841 94.3013555,187.509098 C93.5973161,185.650703 93.0852951,184.304988 92.7652772,183.471915 C92.1892449,182.062097 91.2932082,181.229036 90.0771402,180.972706 C88.9890793,180.780458 88.0290399,180.972703 87.1969934,181.549446 C87.0689862,181.613529 85.8529364,183.087406 83.5488074,185.971123 C82.4607465,187.316858 81.6607138,188.918899 81.1486851,190.777294 C80.6366564,192.63569 80.1566368,194.429976 79.7086117,196.160206 C79.2605866,197.890436 79.0365775,200.069212 79.0365775,202.696598 C79.0365775,204.298663 79.0685788,205.868663 79.1325824,207.406646 C79.1937246,208.875872 79.254866,210.315837 79.3160082,211.72658 Z M186.812348,175.974288 C186.620338,177.576353 185.292283,178.986149 182.828145,180.203718 C180.364007,181.421288 179.131957,182.831084 179.131957,184.433149 C179.131957,185.45847 179.419969,186.836226 179.996001,188.566456 C180.572033,190.296686 180.860045,191.6424 180.860045,192.603639 C180.860045,192.924052 180.796042,193.404665 180.668035,194.045491 C180.284014,195.647555 179.931999,197.281637 179.611981,198.947785 C179.035949,200.678015 178.107911,201.350872 176.827839,200.966377 C175.739779,200.645964 175.115753,199.620657 174.955744,197.890427 C174.795735,196.160197 174.635729,195.070809 174.47572,194.622231 C174.315711,194.173653 174.235707,193.596918 174.235707,192.892009 C174.235707,192.379349 174.29971,191.610369 174.427717,190.585047 C174.555724,189.559726 174.619727,188.822787 174.619727,188.374209 C174.619727,187.6693 174.475721,187.076545 174.187705,186.595926 C173.899689,186.115306 173.371667,185.778878 172.603624,185.58663 C172.027592,185.458465 171.515571,185.746832 171.067546,186.451741 C170.043489,188.246053 169.275457,189.111155 168.763428,189.047073 C167.867378,188.918908 167.339357,188.085846 167.179348,186.547864 C167.019339,185.009882 166.779329,183.984575 166.459311,183.471915 L161.083037,177.512263 C160.122983,175.782032 159.56296,173.667338 159.402951,171.168117 C159.242942,168.668896 159.034934,166.810528 158.77892,165.592959 C158.138884,162.837407 157.370852,159.985774 156.474802,157.037975 C155.578752,154.090175 154.682715,151.174461 153.786665,148.290744 C153.146629,146.047853 151.994582,143.132138 150.330489,139.543513 C147.770346,133.904244 146.490293,129.130162 146.490293,125.221123 C146.6183,124.323967 146.698304,123.587028 146.730305,123.010285 C146.762307,122.433541 146.778308,121.792725 146.778308,121.087816 C146.778308,120.062495 146.714305,119.325556 146.586298,118.876978 C146.202277,117.595326 145.402244,117.018591 144.186176,117.146756 C143.162119,117.146756 142.330084,117.627369 141.690049,118.588608 C141.370031,119.101268 140.922012,120.158615 140.34598,121.76068 C140.153969,122.337424 140.057965,122.850077 140.057965,123.298655 C140.057965,124.259894 140.553986,125.637649 141.546041,127.431962 C142.538097,129.226275 143.034117,130.668112 143.034117,131.757516 C143.034117,133.936324 142.650101,136.307345 141.882058,138.870649 C140.793997,142.523357 140.153971,144.894377 139.961961,145.983782 C139.257921,150.085068 138.761901,153.609558 138.473885,156.557358 C138.185869,159.505157 138.041863,162.901484 138.041863,166.74644 C138.041863,167.835844 138.553884,169.854416 139.577941,172.802215 C140.08997,174.276115 140.34598,175.461625 140.34598,176.358782 C140.34598,177.191855 140.185974,178.088998 139.865956,179.050237 C139.545938,180.011476 137.945872,181.485354 135.065711,183.471915 C133.657632,184.433154 132.761595,185.45846 132.377574,186.547864 C131.993552,187.637268 131.801545,188.50237 131.801545,189.143196 C131.801545,189.71994 131.92955,190.617083 132.185564,191.834652 C132.441579,193.052221 132.569584,193.981405 132.569584,194.622231 C132.569584,195.198974 132.47358,195.839791 132.281569,196.544699 C131.76954,198.403095 131.337523,199.700748 130.985503,200.437698 C130.633483,201.174648 130.201466,201.815464 129.689437,202.360166 C129.177408,202.904868 128.761391,203.177215 128.441373,203.177215 C127.417316,203.177215 126.649285,200.197419 126.137256,194.237737 C125.625227,188.278056 124.9532,185.298259 124.121153,185.298259 C123.801135,185.298259 123.43312,185.554586 123.017097,186.067247 C122.601074,186.579908 122.329062,187.589193 122.201055,189.095134 C122.073048,190.601076 121.593028,191.610361 120.760982,192.123022 C120.37696,192.31527 119.992945,192.411392 119.608923,192.411392 C118.520862,192.411392 117.672828,191.514249 117.064794,189.719937 C116.456759,187.925624 116.040742,186.019195 115.81673,184.000593 C115.592717,181.981991 115.400709,179.114338 115.240701,175.397547 C115.080692,171.680757 114.904684,169.021369 114.712674,167.419304 C114.520663,165.817239 114.424659,164.791933 114.424659,164.343354 C114.424659,163.702528 114.488662,162.709263 114.616669,161.363528 C114.744676,160.017794 114.808679,158.992488 114.808679,158.287579 C114.808679,157.32634 114.728675,156.413177 114.568666,155.548062 C114.408657,154.682947 113.400616,153.289171 111.544512,151.366693 C110.520455,150.341371 109.880429,149.316065 109.624414,148.290744 C109.3684,147.45767 109.784417,146.464405 110.872478,145.310918 C111.576517,144.541927 112.056537,143.869069 112.312551,143.292326 C113.016591,141.626178 113.528612,139.863933 113.84863,138.005538 C113.912633,137.685125 114.168644,135.858798 114.616669,132.526503 C114.872683,130.539943 115.000688,128.585453 115.000688,126.662975 C115.000688,125.573571 114.936686,123.731223 114.808679,121.135878 C114.680671,118.540533 114.616669,116.954512 114.616669,116.377769 C114.680672,115.801026 115.128691,112.05225 115.960737,105.131329 C116.280755,102.503943 116.440762,100.357208 116.440762,98.6910601 C116.440762,97.2171604 116.344758,95.5510378 116.152747,93.6926424 L113.46461,81.9655854 C113.46461,80.6198509 113.848626,78.8896466 114.616669,76.7749209 C115.384712,74.6601951 115.768727,72.9299909 115.768727,71.5842563 C115.768727,69.6617784 115.640722,67.1946353 115.384708,64.1827532 C115.128694,61.170871 115.000688,58.703728 115.000688,56.78125 C115.000688,55.3714328 114.904684,53.6091878 114.712674,51.494462 C114.520663,49.3797363 114.424659,47.7776953 114.424659,46.6882911 L114.424659,45.3425633 C114.552666,44.5735721 114.616669,44.0288782 114.616669,43.7084652 C114.616669,42.3627306 114.776675,41.2573224 115.096693,40.3922073 C115.416711,39.5270922 116.024736,39.0945411 116.920786,39.0945411 C117.816836,39.0945411 119.080888,38.9663779 120.712979,38.7100475 C122.345071,38.4537171 123.513119,38.3255538 124.217158,38.3255538 C124.921197,38.3255538 125.817234,38.5177987 126.905295,38.9022943 C127.993356,39.2867899 128.889393,39.4790348 129.593432,39.4790348 C130.553486,39.4790348 131.545526,39.3188307 132.569584,38.9984177 C135.065723,38.2294265 136.537784,37.8449367 136.985809,37.8449367 C137.817855,37.8449367 138.553886,38.0051408 139.193921,38.3255538 C140.281982,38.9022972 140.826005,39.991685 140.826005,41.59375 C140.826005,42.1704934 140.746001,43.0996771 140.585992,44.3813291 C140.425983,45.6629811 140.34598,46.4640016 140.34598,46.7844146 C140.34598,48.1301491 140.633992,49.6040268 141.210024,51.2060918 C142.490096,54.7947173 143.130122,57.0375746 143.130122,57.934731 C143.130122,58.575557 143.066119,59.2644346 142.938112,60.0013845 C142.810105,60.7383344 141.978071,61.6354773 140.441985,62.6928402 C138.905899,63.7502031 138.009862,64.7114276 137.753848,65.5765427 C137.497834,66.4416578 137.369828,67.1625762 137.369828,67.7393196 C137.369828,68.5723934 137.497834,69.4054547 137.753848,70.2385285 C138.457887,72.545502 138.809902,74.0834613 138.809902,74.8524525 C138.809902,75.8777741 138.649895,77.2234885 138.329877,78.8896361 C138.009859,80.5557836 137.849853,81.7412939 137.849853,82.4462025 C137.849853,83.4074415 138.02586,84.2244824 138.37788,84.8973497 C138.729899,85.570217 139.385926,86.1950129 140.34598,86.7717563 C140.986016,87.0921693 141.434034,87.2523734 141.690049,87.2523734 C142.906117,87.2523734 143.802153,84.9133936 144.378186,80.2353639 C144.762207,77.351647 145.210225,75.3010346 145.722254,74.0834652 L149.946469,64.8556171 L151.482548,59.088212 C152.314594,56.9094037 153.658649,54.7947096 155.514753,52.7440665 C158.458918,49.5399365 160.170988,47.5854466 160.651015,46.880538 C161.131042,46.1756294 161.723066,44.8619558 162.427106,42.9394778 C163.451163,40.1839261 164.635211,38.694028 165.979287,38.4697389 C167.323362,38.2454498 168.187397,38.133307 168.571419,38.133307 C169.275458,38.133307 170.203496,38.2294294 171.355561,38.4216772 C172.507625,38.613925 173.37166,38.7100475 173.947693,38.7100475 C174.843743,38.7100475 175.675777,38.5818842 176.44382,38.3255538 C177.211863,38.0692234 178.011896,37.780856 178.843942,37.460443 C179.675989,37.14003 180.412019,36.9798259 181.052055,36.9798259 C181.948105,36.9798259 182.620132,37.2681933 183.068158,37.8449367 C183.516183,38.4216801 183.740192,38.9984148 183.740192,39.5751582 C183.740192,39.8314886 183.644188,40.3441417 183.452177,41.1131329 C183.260166,41.8821241 183.164162,42.4908997 183.164162,42.9394778 C183.164162,46.0795252 182.444133,50.0365663 181.004052,54.8107199 C179.563972,59.5848736 178.843942,63.2215065 178.843942,65.7207278 C178.843942,66.8742146 178.907945,67.9155412 179.035952,68.8447389 C179.163959,69.7739366 179.547975,71.0075081 180.188011,72.5454905 C180.636036,73.6989773 180.796042,74.7242835 180.668035,75.6214399 C180.412021,77.2235048 180.092008,78.441056 179.707986,79.2741297 C179.131954,80.5557817 178.427925,81.1965981 177.595879,81.1965981 C177.275861,81.1965981 177.01985,81.1325165 176.827839,81.0043513 C176.251807,80.6839383 175.915793,80.2513872 175.819788,79.7066851 C175.723783,79.161983 175.675781,78.6012687 175.675781,78.0245253 L175.675781,76.3904272 C175.675781,75.4932708 175.867789,74.2757197 176.25181,72.7377373 C176.635832,71.199755 176.827839,70.1103671 176.827839,69.4695411 C176.827839,68.1878892 176.315819,67.162583 175.291761,66.3935918 C174.90774,66.0731788 174.491723,65.9129747 174.043698,65.9129747 C173.01964,65.9129747 172.075602,66.8101176 171.211553,68.6044304 C170.347505,70.3987431 169.915487,72.0969065 169.915487,73.6989715 C169.915487,74.3397975 170.091494,75.0767363 170.443514,75.9098101 C170.795534,76.7428839 171.019543,77.5599248 171.115548,78.3609573 C171.211554,79.1619898 171.291557,79.8188266 171.355561,80.3314873 C171.419564,80.8441481 171.451565,81.2927196 171.451565,81.6772152 C171.451565,82.830702 171.259558,83.7118245 170.875536,84.3206092 C170.491515,84.9293939 169.787486,85.2337816 168.763428,85.2337816 L167.179348,85.2337816 C166.699321,85.2337816 166.267303,85.2017408 165.883282,85.1376582 C164.667214,85.1376582 163.707174,85.8745971 163.003135,87.3484968 C162.619113,88.437901 162.427106,89.4311664 162.427106,90.3283228 C162.427106,91.3536444 162.77912,92.9236445 163.483159,95.0383703 C164.187199,97.153096 164.539213,98.8833002 164.539213,100.229035 C164.539213,101.190274 164.475211,102.439866 164.347203,103.977848 C164.219196,105.51583 164.155194,106.765422 164.155194,107.726661 C164.155194,110.802626 164.955226,114.006708 166.555316,117.339003 C168.923448,122.273363 170.299505,125.413364 170.683526,126.759098 C171.067548,128.104833 171.867581,132.045853 173.083649,138.582278 C173.595677,141.401913 174.203702,143.869056 174.907742,145.983782 C175.099752,146.560525 177.819864,150.918076 183.068158,159.056566 C184.860258,161.812118 185.756295,164.535588 185.756295,167.227057 C185.756295,168.060131 185.724293,168.668906 185.66029,169.053402 C185.596286,169.950558 185.852297,171.360354 186.428329,173.282832 C186.748347,174.308154 186.876352,175.205297 186.812348,175.974288 Z M218.936264,92.5391614 C217.97621,92.4750788 217.272181,92.443038 216.824156,92.443038 C216.440134,92.443038 215.928113,92.5071196 215.288078,92.6352848 C214.648042,92.76345 214.136021,93.115899 213.751999,93.6926424 C213.367978,94.2693858 213.17597,95.0383654 213.17597,95.9996044 L214.712048,106.765427 C214.712048,108.880153 214.616044,110.834643 214.424034,112.628956 C213.848001,118.011894 213.559989,121.183935 213.559989,122.145174 C213.559989,124.323982 214.232017,127.976636 215.576092,133.103244 C216.280132,135.794713 216.632146,138.101652 216.632146,140.02413 C216.632146,141.369864 216.440138,142.811701 216.056117,144.349684 C215.480084,146.592575 215.144071,148.210636 215.048065,149.203916 C214.95206,150.197196 214.872057,151.206482 214.808053,152.231804 C214.74405,153.257125 214.712048,154.090187 214.712048,154.731013 C214.712048,155.564086 214.76005,156.589393 214.856056,157.806962 C214.952061,159.024531 215.032064,160.017797 215.096068,160.786788 L215.480087,164.054984 C215.480087,165.144388 215.128073,166.938674 214.424034,169.437896 C214.040012,170.78363 213.848004,171.840977 213.848004,172.609968 C213.912008,173.058547 213.944009,173.410996 213.944009,173.667326 C214.008013,174.372235 214.648039,175.653867 215.864107,177.512263 C216.440139,178.409419 216.728151,179.114317 216.728151,179.626978 C216.728151,180.139639 216.520142,180.636271 216.104119,181.116891 C215.688096,181.59751 215.06407,181.933939 214.232024,182.126187 C213.143963,182.254352 212.279927,182.382515 211.639892,182.51068 L209.719794,182.51068 C209.271769,182.51068 208.80775,182.654864 208.327723,182.943236 C207.847696,183.231607 207.607686,183.72824 207.607686,184.433149 C207.607686,184.753562 207.735691,185.330296 207.991706,186.16337 C208.24772,186.996444 208.375725,187.701342 208.375725,188.278085 C208.375725,189.495655 208.455729,191.049635 208.615737,192.940071 C208.775746,194.830508 208.85575,195.839794 208.85575,195.967959 C208.85575,197.441859 208.647741,198.739512 208.231718,199.860957 C207.815695,200.982403 207.031663,201.991689 205.879598,202.888845 C205.495577,203.209258 205.079559,203.369462 204.631534,203.369462 C204.119506,203.369462 203.751491,202.936911 203.527478,202.071796 C203.303466,201.206681 203.191461,199.909028 203.191461,198.178797 C203.191461,197.153476 203.255464,195.487353 203.383471,193.18038 C203.511478,190.873406 203.575481,189.207284 203.575481,188.181962 C203.575481,186.579897 203.463476,185.346326 203.239463,184.48121 C203.015451,183.616095 202.615435,183.183544 202.039402,183.183544 C201.783388,183.183544 201.399372,183.343748 200.887344,183.664161 C199.863286,184.433153 199.287263,186.355602 199.159256,189.431566 C199.031248,192.507531 198.199214,194.045491 196.663128,194.045491 C195.191046,194.045491 194.455016,193.148348 194.455016,191.354035 C194.455016,190.585044 194.535019,189.543717 194.695028,188.230024 C194.855037,186.91633 194.93504,186.067249 194.93504,185.682753 C194.93504,185.041927 194.903039,184.465192 194.839035,183.952532 C194.775032,183.439871 194.583024,182.895177 194.263006,182.318434 C193.942988,181.74169 193.078953,180.652302 191.670874,179.050237 C190.902831,178.153081 190.326807,177.384101 189.942786,176.743275 C189.174743,175.461623 188.63072,174.115909 188.310703,172.706092 C187.990685,171.296275 187.830678,169.95056 187.830678,168.668908 C187.830678,167.515421 188.310698,164.247258 189.270752,158.86432 C189.718777,156.365098 189.942786,154.122241 189.942786,152.13568 L190.326805,144.638054 C190.326805,143.420484 190.710821,141.27375 191.478864,138.197785 C191.862886,136.659802 192.054893,135.410211 192.054893,134.448972 C192.054893,134.192641 192.038893,133.856213 192.006891,133.439676 C191.974889,133.023139 191.846884,132.398343 191.622871,131.565269 C191.398859,130.732195 191.094846,129.995256 190.710825,129.35443 C189.430753,127.175622 188.694723,125.813887 188.502712,125.269185 C188.310702,124.724483 188.182696,124.179789 188.118693,123.635087 C188.054689,123.090385 188.022688,122.433548 188.022688,121.664557 C188.022688,120.126575 189.110732,116.505962 191.286854,110.802611 C192.310912,108.111142 192.822933,105.676039 192.822933,103.497231 C192.822933,100.99801 192.726929,98.6590299 192.534918,96.4802215 C191.958886,90.007879 191.670874,86.1950216 191.670874,85.0415348 C191.670874,83.7598828 191.894883,81.7413112 192.342908,78.9857595 C192.598922,77.3836945 192.726928,76.2622659 192.726928,75.6214399 C192.726928,74.0193749 192.374913,72.4814156 191.670874,71.0075158 C191.350856,70.3666898 190.646827,69.4375061 189.558766,68.2199367 C188.91873,67.4509455 188.470712,66.84217 188.214698,66.3935918 C187.702669,65.3682702 187.446659,64.2788823 187.446659,63.1253956 C187.446659,62.100074 188.150687,59.6649718 189.558766,55.8200158 C190.262806,53.8975379 190.61482,52.2954969 190.61482,51.0138449 C190.550816,50.5011841 190.518815,50.1166943 190.518815,49.8603639 C190.006786,47.29706 189.526767,44.7337945 189.078742,42.1704905 C189.078742,40.3761777 189.814772,39.094545 191.286854,38.3255538 C191.92689,38.0051408 192.694922,37.8449367 193.590972,37.8449367 C194.551025,37.8449367 195.911081,38.2134061 197.67118,38.950356 C199.431278,39.6873059 200.887338,39.9916937 202.039402,39.8635285 L208.375725,38.3255538 C210.295833,38.3255538 211.911899,38.6780028 213.223972,39.3829114 C214.536046,40.08782 215.928103,41.2733303 217.400185,42.9394778 C218.680257,44.4133776 219.320283,46.111541 219.320283,48.034019 C219.320283,48.995258 218.552252,51.8789317 217.016166,56.6851266 C216.248123,59.0561827 215.864107,61.0747543 215.864107,62.7409019 C215.864107,66.073197 216.568136,71.1036056 217.976215,77.8322785 C219.384293,84.5609514 220.088322,88.6621762 220.088322,90.1360759 C220.088322,91.7381409 219.704306,92.5391614 218.936264,92.5391614 Z M304.05488,141.754351 C303.926872,142.71559 303.190842,144.189468 301.846767,146.176028 C301.142728,147.265433 300.726711,148.226657 300.598703,149.059731 C300.086675,152.392026 299.766662,155.083455 299.638655,157.134098 C299.510647,159.184741 299.446645,162.068415 299.446645,165.785206 C299.446645,166.810527 299.542649,167.771752 299.734659,168.668908 C300.310692,171.360377 300.598703,172.994459 300.598703,173.571203 C300.598703,175.173268 300.550702,176.470921 300.454696,177.464201 C300.358691,178.457481 300.182684,179.434726 299.926669,180.395965 C299.670655,181.357204 298.710616,182.927204 297.046522,185.106013 C296.342483,186.003169 295.990469,186.868271 295.990469,187.701345 C295.990469,188.854832 296.406486,190.969526 297.238532,194.045491 C297.622554,195.455308 297.814562,196.480614 297.814562,197.12144 C297.814562,198.403092 297.334542,199.268194 296.374488,199.716772 C295.414434,200.16535 294.550399,200.389636 293.782356,200.389636 C291.542231,200.389636 290.422185,199.043922 290.422185,196.352453 C290.422185,195.839792 290.454186,195.134894 290.51819,194.237737 C290.582193,193.340581 290.614195,192.699765 290.614195,192.315269 C290.614195,191.418113 290.550192,190.713215 290.422185,190.200554 C290.102167,188.662571 289.814155,187.156653 289.558141,185.682753 C289.110116,183.88844 288.470089,182.991297 287.638043,182.991297 C287.382029,182.991297 287.030014,183.119461 286.581989,183.375791 C286.133964,183.632122 285.845952,184.35304 285.717945,185.538568 C285.589938,186.724096 285.285925,187.509096 284.805899,187.893592 C284.325872,188.278087 283.893854,188.470332 283.509833,188.470332 C282.613782,188.470332 281.717746,187.1887 280.821696,184.625396 C279.541624,181.03677 278.70959,178.922076 278.325568,178.28125 L274.677382,172.513845 C273.589321,170.591367 272.629282,168.540755 271.797236,166.361946 C271.541221,165.785203 271.381215,165.176427 271.317211,164.535601 C271.253207,163.894775 271.221206,163.157836 271.221206,162.324763 C271.221206,160.850863 271.381213,159.152699 271.701231,157.230222 C272.469274,152.616274 272.853289,150.020968 272.853289,149.444225 C272.853289,147.329499 272.085258,146.272152 270.549172,146.272152 C270.101147,146.272152 269.749132,146.304193 269.493118,146.368275 C267.252993,146.816854 266.148948,149.251956 266.180949,153.673655 C266.212951,158.095354 265.396918,161.04311 263.732825,162.517009 C262.772771,163.414166 261.972738,163.862737 261.332702,163.862737 C260.820674,163.862737 260.436658,163.478248 260.180643,162.709256 C259.924629,161.940265 259.796624,160.914959 259.796624,159.633307 C259.796624,157.774912 259.924629,155.564095 260.180643,153.000791 C260.884683,145.951705 261.236697,141.530072 261.236697,139.735759 C261.236697,138.390025 261.204696,137.268596 261.140692,136.37144 C261.076689,135.474283 260.916682,134.577141 260.660668,133.679984 C259.380596,127.335807 258.388556,122.529684 257.684516,119.261472 C256.404445,113.30179 255.156393,110.321994 253.940325,110.321994 C253.428297,110.321994 252.852273,110.94679 252.212237,112.1964 C251.572202,113.446011 251.188186,114.295093 251.060179,114.743671 C250.740161,115.70491 250.612155,116.634094 250.676159,117.53125 C250.86817,119.325563 251.076178,121.071787 251.300191,122.769976 C251.524203,124.468165 251.636208,126.086226 251.636208,127.624209 C251.636208,129.354439 251.4442,131.373011 251.060179,133.679984 C250.932171,134.705306 250.868169,135.474285 250.868169,135.986946 C250.868169,137.07635 251.156181,139.126963 251.732213,142.138845 C252.052231,143.804993 252.212237,145.214789 252.212237,146.368275 C252.212237,147.585845 251.54021,149.604416 250.196135,152.424051 C249.492095,153.89795 249.140081,155.211624 249.140081,156.365111 C249.140081,157.774928 249.492095,159.601255 250.196135,161.844146 C250.900174,164.087037 251.252188,165.913363 251.252188,167.32318 C251.252188,168.732998 251.348192,169.982589 251.540203,171.071994 C252.116235,174.404289 252.404247,176.326738 252.404247,176.839399 L252.404247,177.99288 C252.27624,178.633706 252.180236,179.242481 252.116232,179.819225 C252.052229,180.395968 251.668213,181.068825 250.964174,181.837816 C249.940116,182.991303 249.30009,183.776303 249.044076,184.19284 C248.788062,184.609377 248.628055,185.057949 248.564051,185.538568 C248.500048,186.019188 248.468047,186.676024 248.468047,187.509098 C248.468047,188.085841 248.500048,188.838801 248.564051,189.767998 C248.628055,190.697196 248.724059,191.738523 248.852066,192.892009 C248.852066,194.942653 248.052033,195.967959 246.451944,195.967959 C244.915858,195.967959 244.067823,194.46204 243.907814,191.450158 C243.747805,188.438276 243.187782,186.483786 242.227728,185.58663 C240.947657,184.36906 239.827611,183.439877 238.867557,182.799051 C237.587486,181.965977 236.403437,181.549446 235.315376,181.549446 C234.547333,181.549446 233.7313,181.773732 232.867251,182.22231 C232.003203,182.670888 231.571185,183.439868 231.571185,184.529272 C231.571185,185.170098 231.859197,186.323568 232.435229,187.989715 C233.011262,189.655863 233.299273,190.937496 233.299273,191.834652 C233.299273,192.411395 233.203269,192.956089 233.011259,193.46875 C232.691241,194.814485 232.467232,195.743668 232.339224,196.256329 C232.019207,197.217568 231.475184,197.762262 230.707141,197.890427 C229.875095,198.018592 229.251069,197.53798 228.835046,196.448576 C228.419023,195.359172 228.019006,194.301825 227.634985,193.276503 C226.930945,191.866686 226.450926,190.488931 226.194911,189.143196 C225.938897,187.797462 225.810892,186.387666 225.810892,184.913766 C225.810892,183.824362 225.858894,182.366504 225.954899,180.54015 C226.050904,178.713796 226.098906,177.70451 226.098906,177.512263 C226.098906,175.910198 226.066905,174.4203 226.002902,173.042524 C225.938898,171.664748 225.874895,170.270972 225.810892,168.861155 C225.810892,167.51542 225.890895,166.153686 226.050904,164.77591 C226.210913,163.398134 226.962944,160.49844 228.307019,156.076741 C228.883051,154.218345 229.171063,152.520182 229.171063,150.982199 C229.171063,149.380134 228.787047,146.592583 228.019004,142.619462 C227.634983,140.632901 227.442975,138.99882 227.442975,137.717168 L227.442975,136.563687 C227.570982,135.922861 227.666986,135.233983 227.73099,134.497033 C227.794993,133.760083 229.043044,130.924471 231.47518,125.990111 C232.499238,123.875385 233.011259,121.888854 233.011259,120.030459 C233.011259,118.172063 232.659244,116.185533 231.955205,114.070807 C230.355115,109.264612 229.555083,106.06053 229.555083,104.458465 C229.555083,102.279657 230.355115,98.4988402 231.955205,93.1159019 C232.723248,90.5525979 233.107264,88.3097406 233.107264,86.3872627 C233.107264,85.3619411 233.059262,84.5128594 232.963256,83.8399921 C232.867251,83.1671248 232.051217,80.8441654 230.515131,76.8710443 C229.875096,75.2689793 229.555083,73.7630608 229.555083,72.3532437 C229.555083,70.8152613 229.907097,69.2132204 230.611136,67.5470728 C232.211226,63.7021169 233.011259,61.1388513 233.011259,59.8571994 C233.011259,57.8065562 232.80325,55.2593111 232.387227,52.2153877 C231.971204,49.1714642 231.763195,47.2650355 231.763195,46.4960443 C231.763195,44.4454011 232.227214,42.7472377 233.155266,41.4015032 C234.083318,40.0557686 235.827389,38.9022991 238.387533,37.9410601 C239.731608,37.4924819 240.99566,37.1880942 242.179726,37.0278877 C243.363792,36.8676812 244.755849,36.7875791 246.355939,36.7875791 L249.90812,36.7875791 C250.740166,36.7234965 251.380193,36.6914557 251.828218,36.6914557 C252.340246,36.6914557 252.996273,36.7715577 253.796318,36.9317642 C254.596363,37.0919707 255.220388,37.6046238 255.668413,38.4697389 C256.116439,39.334854 256.340448,40.5684255 256.340448,42.1704905 C256.340448,43.1317295 256.292446,44.4293827 256.19644,46.0634889 C256.100435,47.6975952 256.052433,48.5466769 256.052433,48.6107595 L256.052433,50.1487342 C256.052433,50.5332298 256.180438,51.206087 256.436453,52.1673259 C257.396506,55.8200341 259.284584,59.9532997 262.100741,64.5672468 C264.148856,67.9636246 265.588915,70.4948493 266.420962,72.1609968 C267.82904,75.1087964 268.56507,79.0337967 268.629074,83.9361155 C268.693078,88.8384343 268.981089,92.346904 269.493118,94.4616297 C269.749132,95.4228687 270.389159,96.960828 271.413216,99.0755538 C272.245263,100.741701 272.66128,102.215579 272.66128,103.497231 C272.597276,103.945809 272.565275,104.266217 272.565275,104.458465 C272.373264,105.996448 272.261259,107.021754 272.229258,107.534415 C272.197256,108.047075 272.181255,108.880137 272.181255,110.033623 C272.181255,111.956101 272.469267,113.47804 273.045299,114.599486 C273.621331,115.720931 274.613372,116.185523 276.021451,115.993275 C277.42953,115.801028 278.325566,114.775721 278.709588,112.917326 L279.477627,107.534415 C279.925652,105.740102 280.149661,103.945816 280.149661,102.151503 C280.149661,100.677603 279.573638,97.1210725 278.421573,91.4818038 C277.845541,88.6621694 277.557529,86.1950264 277.557529,84.0803006 C277.557529,81.8374097 277.57353,79.2581238 277.605532,76.3423655 C277.637533,73.4266073 278.133554,70.1744641 279.093607,66.5858386 C279.541633,64.8556084 279.765642,63.3176491 279.765642,61.9719146 C279.765642,60.305767 279.381626,58.543522 278.613583,56.6851266 C276.885486,52.4556751 276.021451,49.0273074 276.021451,46.3999209 C276.021451,44.2211125 276.837484,42.4108063 278.469576,40.9689478 C280.101667,39.5270893 281.749734,38.694028 283.413828,38.4697389 C285.077921,38.2454498 286.885995,37.9570825 288.838104,37.6046282 C290.790213,37.2521739 292.278274,37.0759494 293.302332,37.0759494 C294.646407,37.0759494 296.18247,37.3643167 297.910566,37.9410601 C299.062631,38.3255557 299.990669,38.9183109 300.694708,39.7193434 C301.398748,40.5203758 302.022773,41.6257841 302.566804,43.0356013 C303.110834,44.4454184 303.558853,45.9192961 303.910872,47.4572785 C304.262892,48.9952609 304.438899,50.3089344 304.438899,51.3983386 C304.438899,53.1926514 303.830874,55.916121 302.614806,59.5688291 C301.97477,61.4913071 301.654757,63.0292664 301.654757,64.1827532 C301.654757,65.4644051 301.878766,66.7780787 302.326792,68.1238133 C303.350849,71.3920258 305.366931,76.0699854 308.3751,82.1578323 C309.207146,83.8880624 309.623163,85.3298993 309.623163,86.4833861 C309.623163,88.4699466 306.743045,93.0517837 300.982723,100.229035 C300.086673,101.318439 299.430646,102.51997 299.014623,103.833663 C298.598599,105.147356 298.390591,106.47705 298.390591,107.822785 C298.390591,109.488932 298.902612,112.212402 299.926669,115.993275 C300.950727,119.774149 301.462748,122.785986 301.462748,125.028877 C301.462748,126.246446 301.302741,127.59216 300.982723,129.06606 C300.918719,129.386473 300.886718,129.803004 300.886718,130.315665 C300.886718,131.340986 301.622748,133.423639 303.094831,136.563687 C303.79887,138.037586 304.150885,139.383301 304.150885,140.60087 C304.150885,141.113531 304.118883,141.498021 304.05488,141.754351 Z M389.365506,141.754351 C389.237498,142.71559 388.501468,144.189468 387.157393,146.176028 C386.453354,147.265433 386.037337,148.226657 385.909329,149.059731 C385.397301,152.392026 385.077288,155.083455 384.94928,157.134098 C384.821273,159.184741 384.757271,162.068415 384.757271,165.785206 C384.757271,166.810527 384.853275,167.771752 385.045285,168.668908 C385.621318,171.360377 385.909329,172.994459 385.909329,173.571203 C385.909329,175.173268 385.861327,176.470921 385.765322,177.464201 C385.669317,178.457481 385.49331,179.434726 385.237295,180.395965 C384.981281,181.357204 384.021242,182.927204 382.357148,185.106013 C381.653109,186.003169 381.301095,186.868271 381.301095,187.701345 C381.301095,188.854832 381.717112,190.969526 382.549158,194.045491 C382.93318,195.455308 383.125188,196.480614 383.125188,197.12144 C383.125188,198.403092 382.645168,199.268194 381.685114,199.716772 C380.72506,200.16535 379.861025,200.389636 379.092982,200.389636 C376.852857,200.389636 375.732811,199.043922 375.732811,196.352453 C375.732811,195.839792 375.764812,195.134894 375.828816,194.237737 C375.892819,193.340581 375.924821,192.699765 375.924821,192.315269 C375.924821,191.418113 375.860818,190.713215 375.732811,190.200554 C375.412793,188.662571 375.124781,187.156653 374.868767,185.682753 C374.420742,183.88844 373.780715,182.991297 372.948669,182.991297 C372.692655,182.991297 372.34064,183.119461 371.892615,183.375791 C371.44459,183.632122 371.156578,184.35304 371.028571,185.538568 C370.900564,186.724096 370.596551,187.509096 370.116525,187.893592 C369.636498,188.278087 369.20448,188.470332 368.820458,188.470332 C367.924408,188.470332 367.028372,187.1887 366.132321,184.625396 C364.85225,181.03677 364.020216,178.922076 363.636194,178.28125 L359.988008,172.513845 C358.899947,170.591367 357.939908,168.540755 357.107861,166.361946 C356.851847,165.785203 356.691841,165.176427 356.627837,164.535601 C356.563833,163.894775 356.531832,163.157836 356.531832,162.324763 C356.531832,160.850863 356.691839,159.152699 357.011857,157.230222 C357.7799,152.616274 358.163915,150.020968 358.163915,149.444225 C358.163915,147.329499 357.395884,146.272152 355.859798,146.272152 C355.411773,146.272152 355.059758,146.304193 354.803744,146.368275 C352.563619,146.816854 351.459573,149.251956 351.491575,153.673655 C351.523577,158.095354 350.707544,161.04311 349.04345,162.517009 C348.083397,163.414166 347.283364,163.862737 346.643328,163.862737 C346.131299,163.862737 345.747284,163.478248 345.491269,162.709256 C345.235255,161.940265 345.10725,160.914959 345.10725,159.633307 C345.10725,157.774912 345.235255,155.564095 345.491269,153.000791 C346.195309,145.951705 346.547323,141.530072 346.547323,139.735759 C346.547323,138.390025 346.515322,137.268596 346.451318,136.37144 C346.387315,135.474283 346.227308,134.577141 345.971294,133.679984 C344.691222,127.335807 343.699182,122.529684 342.995142,119.261472 C341.715071,113.30179 340.467019,110.321994 339.250951,110.321994 C338.738923,110.321994 338.162899,110.94679 337.522863,112.1964 C336.882827,113.446011 336.498812,114.295093 336.370805,114.743671 C336.050787,115.70491 335.922781,116.634094 335.986785,117.53125 C336.178796,119.325563 336.386804,121.071787 336.610817,122.769976 C336.834829,124.468165 336.946834,126.086226 336.946834,127.624209 C336.946834,129.354439 336.754826,131.373011 336.370805,133.679984 C336.242797,134.705306 336.178795,135.474285 336.178795,135.986946 C336.178795,137.07635 336.466807,139.126963 337.042839,142.138845 C337.362857,143.804993 337.522863,145.214789 337.522863,146.368275 C337.522863,147.585845 336.850836,149.604416 335.506761,152.424051 C334.802721,153.89795 334.450707,155.211624 334.450707,156.365111 C334.450707,157.774928 334.802721,159.601255 335.506761,161.844146 C336.2108,164.087037 336.562814,165.913363 336.562814,167.32318 C336.562814,168.732998 336.658818,169.982589 336.850829,171.071994 C337.426861,174.404289 337.714873,176.326738 337.714873,176.839399 L337.714873,177.99288 C337.586866,178.633706 337.490862,179.242481 337.426858,179.819225 C337.362855,180.395968 336.978839,181.068825 336.2748,181.837816 C335.250742,182.991303 334.610716,183.776303 334.354702,184.19284 C334.098687,184.609377 333.938681,185.057949 333.874677,185.538568 C333.810674,186.019188 333.778672,186.676024 333.778672,187.509098 C333.778672,188.085841 333.810674,188.838801 333.874677,189.767998 C333.938681,190.697196 334.034685,191.738523 334.162692,192.892009 C334.162692,194.942653 333.362659,195.967959 331.76257,195.967959 C330.226484,195.967959 329.378449,194.46204 329.21844,191.450158 C329.058431,188.438276 328.498408,186.483786 327.538354,185.58663 C326.258283,184.36906 325.138237,183.439877 324.178183,182.799051 C322.898111,181.965977 321.714063,181.549446 320.626002,181.549446 C319.857959,181.549446 319.041926,181.773732 318.177877,182.22231 C317.313829,182.670888 316.881811,183.439868 316.881811,184.529272 C316.881811,185.170098 317.169823,186.323568 317.745855,187.989715 C318.321888,189.655863 318.609899,190.937496 318.609899,191.834652 C318.609899,192.411395 318.513895,192.956089 318.321885,193.46875 C318.001867,194.814485 317.777858,195.743668 317.64985,196.256329 C317.329832,197.217568 316.78581,197.762262 316.017767,197.890427 C315.185721,198.018592 314.561695,197.53798 314.145672,196.448576 C313.729649,195.359172 313.329632,194.301825 312.945611,193.276503 C312.241571,191.866686 311.761552,190.488931 311.505537,189.143196 C311.249523,187.797462 311.121518,186.387666 311.121518,184.913766 C311.121518,183.824362 311.16952,182.366504 311.265525,180.54015 C311.36153,178.713796 311.409532,177.70451 311.409532,177.512263 C311.409532,175.910198 311.377531,174.4203 311.313527,173.042524 C311.249524,171.664748 311.185521,170.270972 311.121518,168.861155 C311.121518,167.51542 311.201521,166.153686 311.36153,164.77591 C311.521539,163.398134 312.27357,160.49844 313.617645,156.076741 C314.193677,154.218345 314.481689,152.520182 314.481689,150.982199 C314.481689,149.380134 314.097673,146.592583 313.32963,142.619462 C312.945609,140.632901 312.753601,138.99882 312.753601,137.717168 L312.753601,136.563687 C312.881608,135.922861 312.977612,135.233983 313.041616,134.497033 C313.105619,133.760083 314.35367,130.924471 316.785806,125.990111 C317.809864,123.875385 318.321885,121.888854 318.321885,120.030459 C318.321885,118.172063 317.96987,116.185533 317.265831,114.070807 C315.665741,109.264612 314.865708,106.06053 314.865708,104.458465 C314.865708,102.279657 315.665741,98.4988402 317.265831,93.1159019 C318.033874,90.5525979 318.41789,88.3097406 318.41789,86.3872627 C318.41789,85.3619411 318.369888,84.5128594 318.273882,83.8399921 C318.177877,83.1671248 317.361843,80.8441654 315.825757,76.8710443 C315.185722,75.2689793 314.865708,73.7630608 314.865708,72.3532437 C314.865708,70.8152613 315.217723,69.2132204 315.921762,67.5470728 C317.521852,63.7021169 318.321885,61.1388513 318.321885,59.8571994 C318.321885,57.8065562 318.113876,55.2593111 317.697853,52.2153877 C317.28183,49.1714642 317.073821,47.2650355 317.073821,46.4960443 C317.073821,44.4454011 317.53784,42.7472377 318.465892,41.4015032 C319.393944,40.0557686 321.138015,38.9022991 323.698159,37.9410601 C325.042234,37.4924819 326.306286,37.1880942 327.490352,37.0278877 C328.674418,36.8676812 330.066475,36.7875791 331.666565,36.7875791 L335.218746,36.7875791 C336.050792,36.7234965 336.690819,36.6914557 337.138844,36.6914557 C337.650872,36.6914557 338.306899,36.7715577 339.106944,36.9317642 C339.906989,37.0919707 340.531014,37.6046238 340.979039,38.4697389 C341.427065,39.334854 341.651074,40.5684255 341.651074,42.1704905 C341.651074,43.1317295 341.603072,44.4293827 341.507066,46.0634889 C341.411061,47.6975952 341.363059,48.5466769 341.363059,48.6107595 L341.363059,50.1487342 C341.363059,50.5332298 341.491064,51.206087 341.747079,52.1673259 C342.707132,55.8200341 344.59521,59.9532997 347.411367,64.5672468 C349.459482,67.9636246 350.899541,70.4948493 351.731587,72.1609968 C353.139666,75.1087964 353.875696,79.0337967 353.9397,83.9361155 C354.003704,88.8384343 354.291715,92.346904 354.803744,94.4616297 C355.059758,95.4228687 355.699785,96.960828 356.723842,99.0755538 C357.555888,100.741701 357.971906,102.215579 357.971906,103.497231 C357.907902,103.945809 357.875901,104.266217 357.875901,104.458465 C357.68389,105.996448 357.571885,107.021754 357.539883,107.534415 C357.507882,108.047075 357.491881,108.880137 357.491881,110.033623 C357.491881,111.956101 357.779893,113.47804 358.355925,114.599486 C358.931957,115.720931 359.923998,116.185523 361.332077,115.993275 C362.740156,115.801028 363.636192,114.775721 364.020214,112.917326 L364.788253,107.534415 C365.236278,105.740102 365.460287,103.945816 365.460287,102.151503 C365.460287,100.677603 364.884264,97.1210725 363.732199,91.4818038 C363.156167,88.6621694 362.868155,86.1950264 362.868155,84.0803006 C362.868155,81.8374097 362.884156,79.2581238 362.916158,76.3423655 C362.948159,73.4266073 363.44418,70.1744641 364.404233,66.5858386 C364.852258,64.8556084 365.076268,63.3176491 365.076268,61.9719146 C365.076268,60.305767 364.692252,58.543522 363.924209,56.6851266 C362.196112,52.4556751 361.332077,49.0273074 361.332077,46.3999209 C361.332077,44.2211125 362.14811,42.4108063 363.780202,40.9689478 C365.412293,39.5270893 367.06036,38.694028 368.724454,38.4697389 C370.388547,38.2454498 372.196621,37.9570825 374.14873,37.6046282 C376.100839,37.2521739 377.5889,37.0759494 378.612958,37.0759494 C379.957033,37.0759494 381.493096,37.3643167 383.221192,37.9410601 C384.373257,38.3255557 385.301295,38.9183109 386.005334,39.7193434 C386.709374,40.5203758 387.333399,41.6257841 387.87743,43.0356013 C388.42146,44.4454184 388.869479,45.9192961 389.221498,47.4572785 C389.573518,48.9952609 389.749525,50.3089344 389.749525,51.3983386 C389.749525,53.1926514 389.1415,55.916121 387.925432,59.5688291 C387.285396,61.4913071 386.965383,63.0292664 386.965383,64.1827532 C386.965383,65.4644051 387.189392,66.7780787 387.637418,68.1238133 C388.661475,71.3920258 390.677557,76.0699854 393.685726,82.1578323 C394.517772,83.8880624 394.933789,85.3298993 394.933789,86.4833861 C394.933789,88.4699466 392.053671,93.0517837 386.293349,100.229035 C385.397299,101.318439 384.741272,102.51997 384.325249,103.833663 C383.909225,105.147356 383.701217,106.47705 383.701217,107.822785 C383.701217,109.488932 384.213238,112.212402 385.237295,115.993275 C386.261352,119.774149 386.773373,122.785986 386.773373,125.028877 C386.773373,126.246446 386.613367,127.59216 386.293349,129.06606 C386.229345,129.386473 386.197344,129.803004 386.197344,130.315665 C386.197344,131.340986 386.933374,133.423639 388.405457,136.563687 C389.109496,138.037586 389.46151,139.383301 389.46151,140.60087 C389.46151,141.113531 389.429509,141.498021 389.365506,141.754351 Z M581.684857,162.132516 C581.812864,162.452929 581.876867,162.869459 581.876867,163.38212 C581.876867,164.022946 581.620857,164.823967 581.108828,165.785206 C579.956763,167.899931 579.38074,169.373809 579.38074,170.206883 C579.38074,170.975874 579.63675,172.00118 580.148779,173.282832 C580.660808,174.564484 580.916818,175.58979 580.916818,176.358782 C580.916818,177.896764 580.116785,179.178397 578.516696,180.203718 C574.292459,182.895188 572.052368,184.593351 571.796353,185.298259 C571.540339,186.003168 571.412334,186.643984 571.412334,187.220728 C571.412334,188.053802 571.604342,189.047067 571.988363,190.200554 C572.884413,192.956106 573.332432,194.526106 573.332432,194.910601 C573.332432,195.87184 572.788409,196.480616 571.700348,196.736946 C570.612287,197.185524 569.556244,197.634096 568.532187,198.082674 C567.828147,198.082674 567.476133,197.377776 567.476133,195.967959 C567.476133,194.878555 567.508134,193.789167 567.572138,192.699763 L567.764148,189.431566 C567.764148,187.637254 567.508137,186.131335 566.996109,184.913766 C566.48408,183.696196 565.492039,182.767013 564.019957,182.126187 C562.675882,181.549443 561.89185,182.094137 561.667837,183.760285 C561.443824,185.426432 561.33182,187.220718 561.33182,189.143196 L561.33182,192.507516 C561.33182,193.276507 561.315819,194.18967 561.283817,195.247033 C561.251816,196.304396 560.947803,196.83307 560.371771,196.83307 C560.051753,196.83307 559.73174,196.672866 559.411722,196.352453 C558.579675,195.583461 558.051654,194.798461 557.827641,193.997429 C557.603629,193.196396 557.491624,192.123029 557.491624,190.777294 L557.491624,189.81606 C557.363617,188.213995 556.803594,186.85226 555.811539,185.730815 C554.819483,184.609369 553.587433,184.048655 552.11535,184.048655 C551.539318,184.048655 550.883291,184.288961 550.14725,184.769581 C549.411209,185.2502 548.787183,185.522547 548.275154,185.58663 C547.187094,185.778878 545.827038,185.362347 544.194946,184.337025 C542.562855,183.311704 541.330805,182.799051 540.498758,182.799051 C540.050733,182.799051 539.698719,182.831091 539.442704,182.895174 C537.714608,183.27967 535.986537,183.6962 534.25844,184.144778 C532.722354,184.721522 531.762315,185.778869 531.378293,187.316851 C531.250286,187.957677 531.186283,188.47033 531.186283,188.854826 C531.186283,189.367487 531.282287,190.168507 531.474298,191.257911 C531.666309,192.347316 531.762313,193.084254 531.762313,193.46875 C531.762313,194.558154 531.250292,195.263052 530.226234,195.583465 C528.626145,196.032043 527.650105,195.150921 527.298085,192.940071 C526.946066,190.729222 526.642053,188.534425 526.386039,186.355617 C526.194028,185.522543 525.554002,184.561319 524.465941,183.471915 C523.37788,182.38251 522.737854,181.421286 522.545843,180.588212 C522.097818,179.114312 521.777805,177.48023 521.585794,175.685918 C521.393783,173.891605 521.297779,172.321605 521.297779,170.97587 L521.297779,167.996044 C521.297779,166.970723 521.329781,165.913376 521.393784,164.823972 C521.393784,158.928372 521.265779,154.394597 521.009765,151.222508 C520.75375,148.050419 520.113724,143.740929 519.089667,138.293908 C518.897656,137.204504 518.801652,136.243279 518.801652,135.410206 C518.801652,133.29548 519.505681,130.475888 520.91376,126.951345 C522.321839,123.426802 523.121871,120.59119 523.313882,118.444422 C523.505893,116.297655 523.601897,114.423268 523.601897,112.821203 C523.601897,111.155055 523.521894,108.912198 523.361885,106.092563 C523.201876,103.272929 523.121872,101.382521 523.121872,100.421282 C523.121872,98.4988037 523.857903,95.262681 525.329985,90.7128165 C526.034024,88.5340081 526.386039,86.6756406 526.386039,85.1376582 L526.386039,83.695807 C526.194028,82.9268158 526.066023,82.350081 526.002019,81.9655854 C525.682001,80.7480161 525.041975,79.3221996 524.081921,77.6880934 C523.121868,76.0539871 522.481841,74.7403135 522.161823,73.7470332 C521.841806,72.7537529 521.617796,71.7604876 521.489789,70.7672073 C521.361782,69.773927 521.297779,68.8287228 521.297779,67.9315665 C521.297779,66.4576667 521.745798,63.2535848 522.641848,58.3192247 C523.089873,55.8200033 523.313882,53.6412276 523.313882,51.7828323 C523.313882,50.6293455 522.961868,49.0593454 522.257828,47.0727848 C521.553789,45.0862242 521.201775,43.6443874 521.201775,42.747231 C521.201775,41.7219094 521.56979,40.6966032 522.305831,39.6712816 C523.041872,38.6459601 523.665898,37.9090212 524.177926,37.460443 C525.073976,36.7555345 526.066017,36.4030854 527.154078,36.4030854 C528.43415,36.4030854 529.714202,36.7875753 530.994274,37.5565665 C534.002442,39.3508792 536.050526,40.2480222 537.138587,40.2480222 L539.106687,40.2480222 C539.778725,40.2480222 540.434752,40.2159813 541.074787,40.1518987 C543.314913,40.1518987 545.074985,40.4242457 546.355057,40.9689478 C547.635128,41.5136499 548.65917,42.6831398 549.427213,44.4774525 C549.619224,44.8619481 549.731228,45.2624584 549.76323,45.6789953 C549.795232,46.0955321 549.843234,46.4319607 549.907238,46.6882911 C549.907238,47.4572823 549.635226,48.658813 549.091196,50.2929193 C548.547166,51.9270256 548.275154,53.1926379 548.275154,54.0897943 C548.275154,55.3714463 548.467162,57.005528 548.851184,58.9920886 C549.235205,60.9786492 549.427213,62.6127309 549.427213,63.8943829 C549.36321,64.8556219 549.027196,66.1052138 548.419162,67.6431962 C547.811128,69.1811786 547.507115,70.4948521 547.507115,71.5842563 C547.507115,72.7377431 548.499156,74.8203963 550.483267,77.8322785 C551.443321,79.2420957 551.859338,80.5557692 551.731331,81.7733386 C551.731331,82.990908 550.963299,84.400704 549.427213,86.002769 C547.891127,87.604834 547.123096,89.01463 547.123096,90.2321994 C547.123096,91.0652732 547.251101,92.0264977 547.507115,93.1159019 C548.083148,95.5510407 548.371159,96.9608367 548.371159,97.3453323 C548.371159,98.4347365 548.083148,99.395961 547.507115,100.229035 C546.16304,102.151513 545.491013,104.202125 545.491013,106.380934 C545.491013,107.27809 545.843027,109.585029 546.547066,113.30182 C546.931088,115.352463 547.123096,117.018585 547.123096,118.300237 C547.123096,120.414963 546.867085,123.170474 546.355057,126.566851 C545.843028,129.963229 545.587017,132.718739 545.587017,134.833465 C545.587017,136.051035 545.747024,137.300627 546.067042,138.582278 C546.835085,141.658243 547.219101,143.612733 547.219101,144.445807 C547.219101,145.086633 547.171099,145.679388 547.075093,146.22409 C546.979088,146.768792 546.899085,147.361547 546.835081,148.002373 C546.771077,148.643199 546.739076,149.348097 546.739076,150.117089 C546.739076,152.424062 547.187094,154.378552 548.083145,155.980617 C548.979195,157.582682 550.451255,158.736152 552.49937,159.44106 C552.947395,159.633308 553.539419,159.793512 554.27546,159.921677 C555.011501,160.049842 555.603526,160.113924 556.051551,160.113924 C557.075608,160.113924 558.611671,159.857597 560.659786,159.344937 C562.7079,158.832276 564.339967,158.575949 565.556035,158.575949 C566.196071,158.575949 566.708092,158.60799 567.092113,158.672073 C567.476135,158.736155 567.860151,158.768196 568.244172,158.768196 L569.396231,158.768196 C570.484292,158.768196 571.524334,158.736155 572.51639,158.672073 C573.508445,158.60799 574.484485,158.543909 575.444539,158.479826 C577.044629,158.479826 578.356682,158.736152 579.38074,159.248813 C580.404797,159.761474 581.172829,160.722699 581.684857,162.132516 Z M654.514847,87.9252373 C654.514847,91.8342759 653.746816,99.1395826 652.21073,109.841377 C651.442687,115.160232 651.058671,119.77411 651.058671,123.683149 L651.058671,131.469146 C651.058671,135.698597 650.946666,139.31921 650.722654,142.331092 C650.498641,145.342974 649.97062,148.867464 649.138573,152.904668 C648.882559,154.18632 648.146529,156.333055 646.93046,159.344937 C645.970407,161.715993 645.490387,163.926809 645.490387,165.977453 L645.490387,168.765032 C645.490387,173.443061 645.346381,176.775307 645.058365,178.761867 C644.770349,180.748428 644.210326,182.959244 643.378279,185.394383 C643.058262,187.380943 642.77025,188.982984 642.514235,190.200554 C642.258221,191.418123 641.522191,192.187103 640.306123,192.507516 C639.154058,192.827929 638.21002,191.69048 637.473979,189.095134 C636.737937,186.499789 635.761897,185.202136 634.545829,185.202136 C633.713783,185.202136 633.041755,185.538565 632.529727,186.211432 C632.017698,186.884299 631.761687,188.213993 631.761687,190.200554 L631.761687,193.372627 C631.761687,194.2057 631.697685,195.198966 631.569678,196.352453 C631.44167,197.505939 631.281664,199.043899 631.089653,200.966377 C630.705632,203.081102 629.9376,204.138449 628.785536,204.138449 C628.465518,204.138449 628.209507,204.106409 628.017497,204.042326 C626.609418,203.65783 625.68138,202.760687 625.233355,201.35087 C625.169351,201.222705 624.945342,199.684746 624.56132,196.736946 C624.433313,194.878551 624.305308,193.052224 624.177301,191.257911 C623.921286,189.207268 623.249259,188.181962 622.161198,188.181962 C621.905184,188.181962 621.617172,188.230023 621.297154,188.326147 C620.977136,188.422271 620.561119,188.79074 620.04909,189.431566 C619.537062,190.072392 619.073043,190.456882 618.657019,190.585047 C618.240996,190.713213 617.968985,190.777294 617.840978,190.777294 C617.072935,190.777294 616.048893,190.104437 614.768821,188.758703 C613.48875,187.412968 612.336702,186.740111 611.312645,186.740111 C609.456541,186.740111 608.240491,188.66256 607.664459,192.507516 C607.088427,196.352472 606.064385,198.274921 604.592303,198.274921 C601.712141,198.274921 600.160078,195.823798 599.936065,190.921479 C599.712053,186.019161 599.088027,182.831099 598.06397,181.357199 C597.679948,180.780456 596.815913,179.242497 595.471838,176.743275 C593.679737,173.346898 592.015669,171.648734 590.479583,171.648734 C590.031558,171.648734 589.487536,171.808938 588.8475,172.129351 C587.887446,172.706095 587.407427,173.731401 587.407427,175.205301 C587.407427,175.782044 587.439428,176.438881 587.503432,177.175831 C587.567435,177.912781 587.599437,178.345332 587.599437,178.473497 C587.599437,179.819231 587.119417,180.780456 586.159363,181.357199 C585.711338,181.61353 585.26332,181.741693 584.815295,181.741693 C583.599227,181.741693 582.783193,180.299856 582.36717,177.416139 C581.951147,174.532422 581.55113,171.744871 581.167109,169.053402 C579.75903,163.990877 579.055001,159.376999 579.055001,155.21163 C579.055001,151.494839 579.75903,146.752798 581.167109,140.985364 C582.191166,136.884078 582.703187,133.712037 582.703187,131.469146 C582.703187,128.008685 581.423135,123.619093 578.862991,118.300237 C578.030945,116.505925 577.406919,114.695618 576.990896,112.869264 C576.574873,111.04291 576.366864,109.232604 576.366864,107.438291 C576.366864,104.362326 577.150896,99.8445709 578.718984,93.8848892 C580.287072,87.9252075 581.071104,83.3113296 581.071104,80.0431171 C581.071104,78.6332999 581.039102,77.5439121 580.975099,76.7749209 C580.911095,76.0059297 580.735088,74.9325623 580.447072,73.5547864 C580.159056,72.1770105 580.01505,70.8152757 580.01505,69.4695411 C580.01505,67.5470632 580.463068,65.1119609 581.359118,62.1641614 C582.511183,58.2551229 583.215212,55.5636941 583.471226,54.0897943 C584.175266,48.8350212 587.567404,44.5735923 593.647745,41.3053797 C598.127996,39.190654 601.520135,37.5565722 603.824263,36.4030854 C605.232342,35.6981769 606.432391,35.1695033 607.424447,34.8170491 C608.416502,34.4645948 609.456545,34.2883703 610.544606,34.2883703 C611.568663,34.2883703 612.656708,34.4806152 613.808772,34.8651108 C615.856887,35.5059367 620.273068,36.4992021 627.057448,37.8449367 C635.31391,39.5110843 641.522164,42.4908804 645.682397,46.7844146 C649.330601,50.5652879 651.826703,54.8907984 653.170779,59.7610759 C654.194836,63.4778667 654.706857,68.3160303 654.706857,74.275712 C654.706857,75.6855292 654.674856,77.8963457 654.610852,80.9082278 C654.546848,83.92011 654.514847,86.2590898 654.514847,87.9252373 Z M628.017497,113.494066 C628.0815,113.173653 628.113501,112.837225 628.113501,112.484771 L628.113501,111.763845 C628.113501,110.802606 627.921494,109.520973 627.537472,107.918908 C627.153451,106.316843 626.929441,105.163374 626.865438,104.458465 C626.417413,100.86984 625.985395,97.2812679 625.569372,93.6926424 C625.153348,90.1040169 624.94534,86.3872819 624.94534,82.5423259 C624.94534,81.0043436 625.169349,79.1459761 625.617374,76.9671677 C626.641432,72.0328076 627.153452,69.1491339 627.153452,68.3160601 C627.153452,66.9703255 626.865441,65.8168561 626.289408,64.8556171 C625.713376,63.8943781 624.753337,63.1253985 623.409262,62.5486551 C622.897233,62.4204899 622.57722,62.3564082 622.449213,62.3564082 C621.361152,62.3564082 620.385112,64.3749798 619.521063,68.4121835 C618.657015,72.4493873 617.392963,74.2116323 615.72887,73.6989715 C614.896824,73.4426411 613.936784,71.2959063 612.848723,67.2587025 C612.400698,65.7207202 611.696669,65.1760262 610.736616,65.6246044 C609.328537,66.2654304 608.352497,67.1305325 607.808467,68.2199367 C607.264436,69.3093409 606.992425,70.6870961 606.992425,72.3532437 C606.992425,73.6989782 607.184433,75.3971416 607.568454,77.4477848 L608.432498,82.0617089 C608.624509,83.0870304 608.752514,84.0322346 608.816518,84.8973497 C608.880521,85.7624648 608.912523,86.6756281 608.912523,87.6368671 C608.912523,89.2389321 608.84852,90.5846465 608.720513,91.6740506 C608.400495,93.6606112 608.160485,95.2786725 608.000476,96.5282832 C607.840467,97.7778939 607.760464,99.0114654 607.760464,100.229035 C607.760464,102.792339 608.256484,106.268768 609.24854,110.658426 C610.240595,115.048084 610.736616,118.556553 610.736616,121.18394 C610.544605,123.362748 610.096587,125.845912 609.392547,128.633505 C608.688508,131.421098 608.24049,133.615894 608.048479,135.217959 C607.53645,139.062915 607.05643,142.875772 606.608405,146.656646 C606.608405,147.938298 606.72041,149.059726 606.944422,150.020965 C607.168435,150.982204 607.568451,152.135674 608.144484,153.481408 C610.000588,157.390447 611.152635,159.697386 611.60066,160.402294 C613.136746,162.645185 614.960821,163.766614 617.072939,163.766614 C617.520964,163.702531 617.840977,163.670491 618.032988,163.670491 C619.633077,163.41416 620.977132,162.853446 622.065193,161.988331 C623.153254,161.123216 624.113293,159.889644 624.94534,158.287579 C625.393365,157.390423 625.617374,156.429198 625.617374,155.403877 C625.617374,154.827133 625.489369,153.92999 625.233355,152.712421 C624.97734,151.494852 624.849335,150.501586 624.849335,149.732595 C624.849335,149.284017 624.913338,148.482996 625.041345,147.329509 C625.169352,146.176023 625.233355,144.734186 625.233355,143.003956 C625.233355,141.209643 625.105349,138.774541 624.849335,135.698576 C624.593321,132.622611 624.465315,130.315672 624.465315,128.77769 C624.465315,126.855212 624.545319,125.301232 624.705328,124.115704 C624.865337,122.930176 625.20135,121.376196 625.713379,119.453718 L628.017497,113.494066 Z M745.198007,43.1817909 C747.908919,36.9385178 763.147533,29.9167592 766.703103,37.5745915 C770.258673,45.2324238 771.823364,51.3843225 766.703103,58.5615377 C761.582842,65.7387529 755.438529,82.1438162 750.318268,82.1438162 C757.590293,65.7387529 757.590293,61.6374871 757.590293,58.5615377 C757.590293,55.4855883 738.029642,55.4855883 745.198007,43.1817909 Z M88.1165049,234.432847 C88.1165049,218.250399 100.667769,207.198972 116.929156,207.198972 C133.190542,207.198972 145.741807,218.250399 145.741807,234.432847 C145.741807,250.615295 133.190542,261.666723 116.929156,261.666723 C100.667769,261.666723 88.1165049,250.615295 88.1165049,234.432847 Z M129.559359,234.432847 C129.559359,227.091542 124.586217,221.250073 116.929156,221.250073 C109.272095,221.250073 104.298953,227.091542 104.298953,234.432847 C104.298953,241.774153 109.272095,247.615622 116.929156,247.615622 C124.586217,247.615622 129.559359,241.774153 129.559359,234.432847 Z M184.88615,260.719457 L165.467212,232.459378 L165.467212,260.719457 L149.521581,260.719457 L149.521581,208.067298 L165.940845,208.067298 L184.254639,234.590725 L184.254639,208.067298 L200.200271,208.067298 L200.200271,260.719457 L184.88615,260.719457 Z M220.557186,260.719457 L201.138249,208.067298 L219.215227,208.067298 L230.58241,243.510806 L241.949593,208.067298 L260.026571,208.067298 L240.607634,260.719457 L220.557186,260.719457 Z M260.964549,260.719457 L260.964549,208.067298 L300.907567,208.067298 L300.907567,221.329011 L276.910181,221.329011 L276.910181,227.486235 L300.354995,227.486235 L300.354995,240.747949 L276.910181,240.747949 L276.910181,247.457744 L300.907567,247.457744 L300.907567,260.719457 L260.964549,260.719457 Z M341.472807,260.719457 L322.05387,232.459378 L322.05387,260.719457 L306.108238,260.719457 L306.108238,208.067298 L322.527503,208.067298 L340.841297,234.590725 L340.841297,208.067298 L356.786929,208.067298 L356.786929,260.719457 L341.472807,260.719457 Z M363.408498,260.719457 L363.408498,208.067298 L379.35413,208.067298 L379.35413,260.719457 L363.408498,260.719457 Z M385.975699,260.719457 L385.975699,208.067298 L425.918717,208.067298 L425.918717,221.329011 L401.921331,221.329011 L401.921331,227.486235 L425.366145,227.486235 L425.366145,240.747949 L401.921331,240.747949 L401.921331,247.457744 L425.918717,247.457744 L425.918717,260.719457 L385.975699,260.719457 Z M514.153687,261.666723 C498.050178,261.666723 485.577852,250.615295 485.577852,234.432847 C485.577852,218.171461 498.050178,207.198972 514.153687,207.198972 C528.362666,207.198972 535.309277,215.250726 538.466828,222.513093 L524.731482,228.907133 C523.389523,224.802317 519.284707,221.250073 514.153687,221.250073 C506.89132,221.250073 501.7603,227.091542 501.7603,234.432847 C501.7603,241.774153 506.89132,247.615622 514.153687,247.615622 C519.284707,247.615622 523.389523,244.063377 524.731482,239.958561 L538.466828,246.273663 C535.388216,253.299213 528.362666,261.666723 514.153687,261.666723 Z M541.536153,260.719457 L541.536153,208.067298 L581.479171,208.067298 L581.479171,221.329011 L557.481785,221.329011 L557.481785,227.486235 L580.926599,227.486235 L580.926599,240.747949 L557.481785,240.747949 L557.481785,247.457744 L581.479171,247.457744 L581.479171,260.719457 L541.536153,260.719457 Z M600.879534,253.299213 L609.168104,241.458398 C613.115043,245.247459 619.035451,248.247132 626.13994,248.247132 C629.139613,248.247132 631.981409,247.220928 631.981409,245.16852 C631.981409,243.116112 629.771123,242.089908 624.561165,241.142643 C615.8779,239.563867 602.616187,237.511459 602.616187,224.328685 C602.616187,215.408604 610.036431,207.27791 624.482226,207.27791 C633.086552,207.27791 640.822551,209.725012 646.821898,214.619216 L638.296511,225.90746 C633.718062,222.434154 627.797654,220.697501 623.613899,220.697501 C619.666961,220.697501 618.798634,222.118399 618.798634,223.460358 C618.798634,225.512766 620.929981,226.223215 626.534634,227.17048 C635.217898,228.670317 648.084918,231.196358 648.084918,243.352928 C648.084918,254.956927 639.480592,261.666723 625.350552,261.666723 C614.141247,261.666723 606.484186,258.351294 600.879534,253.299213 Z M692.035238,234.432847 C692.035238,218.250399 704.586503,207.198972 720.847889,207.198972 C737.109276,207.198972 749.66054,218.250399 749.66054,234.432847 C749.66054,250.615295 737.109276,261.666723 720.847889,261.666723 C704.586503,261.666723 692.035238,250.615295 692.035238,234.432847 Z M733.478093,234.432847 C733.478093,227.091542 728.50495,221.250073 720.847889,221.250073 C713.190829,221.250073 708.217686,227.091542 708.217686,234.432847 C708.217686,241.774153 713.190829,247.615622 720.847889,247.615622 C728.50495,247.615622 733.478093,241.774153 733.478093,234.432847 Z M782.410843,260.719457 L775.148476,243.826561 L769.385946,243.826561 L769.385946,260.719457 L753.440314,260.719457 L753.440314,208.067298 L781.542516,208.067298 C793.856964,208.067298 800.487821,216.27693 800.487821,226.144276 C800.487821,235.222235 795.198923,240.0375 791.015169,242.089908 L800.56676,260.719457 L782.410843,260.719457 Z M784.305373,225.90746 C784.305373,223.065664 781.779333,221.329011 779.095414,221.329011 L769.385946,221.329011 L769.385946,230.564847 L779.095414,230.564847 C781.779333,230.564847 784.305373,228.828194 784.305373,225.90746 Z" id="Combined-Shape" fill="#FFFFFF"></path>
        </g>
    </g>
</svg>