<?xml version="1.0" encoding="utf-8"?>
<!-- Generator: Adobe Illustrator 22.1.0, SVG Export Plug-In . SVG Version: 6.00 Build 0)  -->
<svg version="1.1" id="Layer_1" xmlns="http://www.w3.org/2000/svg" xmlns:xlink="http://www.w3.org/1999/xlink" x="0px" y="0px"
	 viewBox="0 0 512 512" style="enable-background:new 0 0 512 512;" xml:space="preserve">
<style type="text/css">
	.st0{fill:#231F20;}
	.st1{fill:none;stroke:#FFFFFF;stroke-width:29;}
	.st2{fill:#FFFFFF;}
</style>
<path class="st0" d="M76.8,0h358.4C477.6,0,512,34.4,512,76.8v358.4c0,42.4-34.4,76.8-76.8,76.8H76.8C34.4,512,0,477.6,0,435.2V76.8
	C0,34.4,34.4,0,76.8,0z"/>
<g>
	<path class="st1" d="M186,108h140c43.1,0,78,34.9,78,78v140c0,43.1-34.9,78-78,78H186c-43.1,0-78-34.9-78-78V186
		C108,142.9,142.9,108,186,108z"/>
	<circle class="st1" cx="256" cy="256" r="69"/>
</g>
<circle class="st2" cx="343" cy="169" r="19"/>
</svg>
