<?xml version="1.0" encoding="utf-8"?>
<!-- Generator: Adobe Illustrator 22.1.0, SVG Export Plug-In . SVG Version: 6.00 Build 0)  -->
<svg version="1.1" id="Layer_1" xmlns="http://www.w3.org/2000/svg" xmlns:xlink="http://www.w3.org/1999/xlink" x="0px" y="0px"
	 viewBox="0 0 512 512" style="enable-background:new 0 0 512 512;" xml:space="preserve">
<style type="text/css">
	.st0{fill:#231F20;}
	.st1{fill:#FFFFFF;}
</style>
<g>
	<path class="st0" d="M435.2,0H76.8C34.4,0,0,34.4,0,76.8v358.4C0,477.6,34.4,512,76.8,512h358.4c42.4,0,76.8-34.4,76.8-76.8V76.8
		C512,34.4,477.6,0,435.2,0z M256,448c-106,0-192-86-192-192S150,64,256,64s192,86,192,192S362,448,256,448z"/>
	<path class="st1" d="M256,64C150,64,64,150,64,256s86,192,192,192s192-86,192-192S362,64,256,64z M344.3,341.1
		c-2.2,3.8-6.2,5.9-10.3,5.9c-2.1,0-4.2-0.5-6.1-1.7c-60.8-36.3-122.4-29-169.2-18.6c-6.5,1.4-12.9-2.6-14.3-9.1s2.6-12.9,9.1-14.3
		c51.2-11.4,118.7-19.2,186.8,21.4C345.8,328.1,347.7,335.5,344.3,341.1z M368.1,289.2c-2.9,4.7-8,7.3-13.1,7.3
		c-2.8,0-5.7-0.8-8.2-2.4c-57.4-36-137.1-37.1-190.6-22.2c-8.2,2.3-16.8-2.5-19.1-10.8c-2.3-8.2,2.5-16.8,10.8-19.1
		c33.1-9.2,71.4-12.3,107.9-8.7c40.6,4,77.8,15.9,107.5,34.5C370.5,272.4,372.7,282,368.1,289.2z M394.9,227.4
		c-3.2,6.1-9.5,9.6-15.9,9.6c-2.8,0-5.7-0.7-8.4-2.1c-33.6-17.7-71.2-28.5-111.8-32.1c-37.9-3.4-77,0-113.1,9.6
		c-9.6,2.6-19.5-3.1-22-12.8c-2.6-9.6,3.1-19.5,12.8-22c40.1-10.7,83.6-14.4,125.6-10.7c45.4,4,87.6,16.2,125.4,36.1
		C396.2,207.7,399.6,218.6,394.9,227.4z"/>
	<path class="st0" d="M387.4,203.1c-37.9-20-80.1-32.1-125.4-36.1c-42-3.7-85.5,0-125.6,10.7c-9.6,2.6-15.3,12.4-12.8,22
		c2.6,9.6,12.4,15.3,22,12.8c36.1-9.6,75.2-12.9,113.1-9.6c40.6,3.6,78.2,14.4,111.8,32.1c2.7,1.4,5.5,2.1,8.4,2.1
		c6.5,0,12.7-3.5,15.9-9.6C399.6,218.6,396.2,207.7,387.4,203.1z"/>
	<path class="st0" d="M363.2,267.9c-29.7-18.6-66.9-30.6-107.5-34.5c-36.5-3.6-74.9-0.5-107.9,8.7c-8.2,2.3-13.1,10.8-10.8,19.1
		c2.3,8.2,10.8,13.1,19.1,10.8c53.5-14.9,133.2-13.8,190.6,22.2c2.6,1.6,5.4,2.4,8.2,2.4c5.2,0,10.2-2.6,13.1-7.3
		C372.7,282,370.5,272.4,363.2,267.9z"/>
	<path class="st0" d="M340.1,324.7c-68.1-40.6-135.6-32.8-186.8-21.4c-6.5,1.4-10.5,7.8-9.1,14.3s7.9,10.6,14.3,9.1
		c46.9-10.4,108.4-17.7,169.2,18.6c1.9,1.2,4,1.7,6.1,1.7c4.1,0,8.1-2.1,10.3-5.9C347.7,335.5,345.8,328.1,340.1,324.7z"/>
</g>
</svg>
